<svg xmlns="http://www.w3.org/2000/svg" width="184.591" height="149.942" viewBox="0 0 184.591 149.942">
  <g id="Capa_2" data-name="Capa 2" transform="translate(-0.024 0.005)">
    <g id="objects" transform="translate(0.024 -0.005)">
      <path id="Trazado_296" data-name="Trazado 296" d="M128.531,97.718s-8.8,11.1-16.907,15.095-1.507,9.764,3.223,7.238c3.484-1.864,12.734-5.514,18.553-15.008S128.531,97.718,128.531,97.718Z" transform="translate(-13.925 -12.572)" fill="#fff"/>
      <path id="Trazado_297" data-name="Trazado 297" d="M93.135,165.49c0,2.831-13.536,5.13-30.242,5.13s-30.233-2.3-30.233-5.13,13.536-5.13,30.233-5.13S93.135,162.66,93.135,165.49Z" transform="translate(-4.234 -20.678)" fill="#454747" opacity="0.2"/>
      <path id="Trazado_298" data-name="Trazado 298" d="M177.705,165.49c0,2.831-13.536,5.13-30.233,5.13s-30.242-2.3-30.242-5.13,13.536-5.13,30.242-5.13S177.705,162.66,177.705,165.49Z" transform="translate(-15.141 -20.678)" fill="#454747" opacity="0.2"/>
      <path id="Trazado_299" data-name="Trazado 299" d="M112.811,38.522s9.9-23.222,5.426-27.115-25.53,6.968-28.482,10.9S112.811,38.522,112.811,38.522Z" transform="translate(-11.567 -1.36)" fill="#757f7d"/>
      <path id="Trazado_300" data-name="Trazado 300" d="M40.5,27.872S37.181,2.83,42.547.269,65.272,13.805,67.057,18.4,40.5,27.872,40.5,27.872Z" transform="translate(-5.114 0.005)" fill="#757f7d"/>
      <path id="Trazado_301" data-name="Trazado 301" d="M46.456,24.1S44.6,10.086,47.6,8.657,60.323,16.235,61.324,18.8,46.456,24.1,46.456,24.1Z" transform="translate(-5.94 -1.093)" fill="#ffcdb8"/>
      <path id="Trazado_302" data-name="Trazado 302" d="M98.9,24.018s11.933-7.569,14.494-5.444S111.861,33.3,109.91,35.289,98.9,24.018,98.9,24.018Z" transform="translate(-12.777 -2.343)" fill="#ffcdb8"/>
      <path id="Trazado_303" data-name="Trazado 303" d="M70.882,14.985S37.687,11.414,27.217,46.908,59.14,87.742,78.547,85.695,115.9,65.8,105.1,39.731C95.915,17.511,70.882,14.985,70.882,14.985Z" transform="translate(-3.32 -1.916)" fill="#757f7d"/>
      <path id="Trazado_304" data-name="Trazado 304" d="M64.138,59.344s3.258-.549,4.886.81a4.362,4.362,0,0,1-2.892,2.535S63.955,61.06,64.138,59.344Z" transform="translate(-8.292 -7.636)" fill="#454747"/>
      <path id="Trazado_305" data-name="Trazado 305" d="M61.34,64.031a8.066,8.066,0,0,0,1.6,1.489,1.455,1.455,0,0,0,.871.314h.1c-.052,0,.061,0,.078-.052s.122-.1.157-.131a2.43,2.43,0,0,0,.27-.383,12.194,12.194,0,0,0,.8-1.995c.209-.7.418-1.4.584-2.108l.74.174a18.491,18.491,0,0,0-.34,2.413q0,.6,0,1.2a2.241,2.241,0,0,0,.052.592,2.882,2.882,0,0,0,.122.557,2.038,2.038,0,0,0,.2.514c0,.087.1.131.157.2a.438.438,0,0,0,.183.174l.226.122.261.061h.566a3.249,3.249,0,0,0,1.106-.392,5.27,5.27,0,0,0,1.01-.706,4.138,4.138,0,0,1-.871.871,3.484,3.484,0,0,1-1.176.6H67.01l-.34-.165a.81.81,0,0,1-.287-.226,1.063,1.063,0,0,1-.244-.279,2.613,2.613,0,0,1-.314-.618,3.631,3.631,0,0,1-.174-.653,5.478,5.478,0,0,1-.1-.645,10.787,10.787,0,0,1,0-1.3,15.676,15.676,0,0,1,.331-2.535l.74.165a20.035,20.035,0,0,1-.662,2.16,9.964,9.964,0,0,1-.976,2.073,2.613,2.613,0,0,1-.418.488.871.871,0,0,1-.287.183.819.819,0,0,1-.174.07h-.183a1.376,1.376,0,0,1-.636-.157,2.5,2.5,0,0,1-.5-.34A6.968,6.968,0,0,1,61.34,64.031Z" transform="translate(-7.933 -7.88)" fill="#454747"/>
      <path id="Trazado_306" data-name="Trazado 306" d="M37,58.167V57.94a4.443,4.443,0,0,1,0-.636,5.113,5.113,0,0,1,.235-1.01,5.487,5.487,0,0,1,.47-1.254,6.515,6.515,0,0,1,2.273-2.613,5.487,5.487,0,0,1,1.908-.793,5.592,5.592,0,0,1,2.186,0,5.662,5.662,0,0,1,2,.871,5.47,5.47,0,0,1,1.42,1.489,6.576,6.576,0,0,1,1.037,3.292,5.453,5.453,0,0,1-.078,1.341,5.347,5.347,0,0,1-.235.976,3.92,3.92,0,0,1-.235.6l-.1.209-.07-.871a5.38,5.38,0,0,0-.139-.932,4.843,4.843,0,0,0-.122-.549,5.618,5.618,0,0,0-.174-.592,8.709,8.709,0,0,0-.514-1.176,7.134,7.134,0,0,0-.81-1.185,4.869,4.869,0,0,0-1.089-.941,4.355,4.355,0,0,0-1.315-.488,4.259,4.259,0,0,0-1.428-.087,4.765,4.765,0,0,0-1.376.427,6.628,6.628,0,0,0-1.219.749,9.154,9.154,0,0,0-.984.923c-.148.157-.27.314-.392.47a5.226,5.226,0,0,0-.34.462c-.209.3-.366.557-.505.784C37.164,57.879,37,58.167,37,58.167Z" transform="translate(-4.792 -6.641)" fill="#454747"/>
      <path id="Trazado_307" data-name="Trazado 307" d="M85.678,66.9v-.226a4.444,4.444,0,0,1,0-.636,5.855,5.855,0,0,1,.192-1,5.487,5.487,0,0,1,.47-1.254,6.255,6.255,0,0,1,.871-1.35A6.429,6.429,0,0,1,88.6,61.2a5.487,5.487,0,0,1,1.908-.793,5.383,5.383,0,0,1,5.618,2.378,6.385,6.385,0,0,1,1.028,3.284,5.453,5.453,0,0,1-.078,1.341,5.347,5.347,0,0,1-.235.976,3.921,3.921,0,0,1-.235.6l-.087.209-.078-.871a5.379,5.379,0,0,0-.139-.932,4.845,4.845,0,0,0-.122-.549,4.1,4.1,0,0,0-.174-.592,8.71,8.71,0,0,0-.47-1.219,6.637,6.637,0,0,0-.81-1.185,4.869,4.869,0,0,0-1.089-.941,4.164,4.164,0,0,0-1.315-.531,4.259,4.259,0,0,0-1.411,0,4.765,4.765,0,0,0-1.376.427,6.629,6.629,0,0,0-1.219.749,8.3,8.3,0,0,0-.984.845c-.148.157-.279.314-.4.47a5.229,5.229,0,0,0-.34.462c-.2.3-.366.557-.505.784Z" transform="translate(-11.07 -7.772)" fill="#454747"/>
      <path id="Trazado_308" data-name="Trazado 308" d="M46.379,87.59s-37.985,34.162,1.838,67.069c0,0,5.226,1.228,6.1-1.219s1.219-11.585,1.219-11.585,10.069-2.752,12.508,0,2.482,12.342,6.1,13.248c2.613.662,5.4.3,6.167-.261,1.559-1.132,1.847-19.163,1.542-32.864s4.878-30.817,4.878-30.817Z" transform="translate(-3.894 -11.293)" fill="#757f7d"/>
      <path id="Trazado_309" data-name="Trazado 309" d="M92.36,93.811s8.283,12.865,16.549,18.039.584,10.661-4.233,7.439c-3.562-2.378-13.109-7.282-18.352-18.117S92.36,93.811,92.36,93.811Z" transform="translate(-10.976 -12.027)" fill="#757f7d"/>
      <path id="Trazado_310" data-name="Trazado 310" d="M88.078,107.081s8.283,12.865,16.549,18.03.584,10.661-4.242,7.447c-3.562-2.378-13.065-7.29-18.344-18.126S88.078,107.081,88.078,107.081Z" transform="translate(-10.422 -13.738)" fill="#757f7d"/>
      <path id="Trazado_311" data-name="Trazado 311" d="M178.468,45.075s6.1-23.021,1.4-26.052-22.891,9.93-25.12,14.023S178.468,45.075,178.468,45.075Z" transform="translate(-19.963 -2.391)" fill="#f1f1f1"/>
      <path id="Trazado_312" data-name="Trazado 312" d="M109.481,45.274S103,22.358,107.66,19.248,130.682,28.812,133,32.906,109.481,45.274,109.481,45.274Z" transform="translate(-13.689 -2.416)" fill="#f1f1f1"/>
      <path id="Trazado_313" data-name="Trazado 313" d="M114.419,41s-3.632-12.83-1.019-14.572,12.9,5.357,14.189,7.621S114.419,41,114.419,41Z" transform="translate(-14.525 -3.369)" fill="#ffcdb8"/>
      <path id="Trazado_314" data-name="Trazado 314" d="M163.39,33.625s10.113-8.71,12.8-7.047.557,13.936-.958,16.079S163.39,33.625,163.39,33.625Z" transform="translate(-21.095 -3.397)" fill="#ffcdb8"/>
      <path id="Trazado_315" data-name="Trazado 315" d="M136.7,28.329s-31.488,1.15-36.461,35.712,35.329,33.839,53.176,29.31,32.176-23.631,18.579-46.513C160.408,27.327,136.7,28.329,136.7,28.329Z" transform="translate(-12.895 -3.648)" fill="#f1f1f1"/>
      <path id="Trazado_316" data-name="Trazado 316" d="M167.559,74.848l-.244-.81c-.078-.253-.183-.54-.322-.871a5.162,5.162,0,0,0-.226-.514c-.087-.174-.165-.357-.279-.54a10.2,10.2,0,0,0-.74-1.106,6.1,6.1,0,0,0-1.01-.993,4.633,4.633,0,0,0-1.219-.706,3.676,3.676,0,0,0-.671-.192c-.122,0-.226-.052-.348-.052h-.732a.6.6,0,0,0-.322.052,4.355,4.355,0,0,0-1.864.871,6.8,6.8,0,0,0-1,1,9.049,9.049,0,0,0-.732,1.115,4.457,4.457,0,0,0-.27.54,3.8,3.8,0,0,0-.235.514c-.131.331-.235.627-.314.871l-.235.8-.052-.218a5.47,5.47,0,0,1-.113-.618,7.721,7.721,0,0,1,.723-3.8,6.1,6.1,0,0,1,1.019-1.446,5.435,5.435,0,0,1,1.655-1.2,4.918,4.918,0,0,1,.5-.2,3.362,3.362,0,0,1,.549-.157,5.593,5.593,0,0,1,1.01-.122h.618a3.992,3.992,0,0,1,.549.087,4.607,4.607,0,0,1,1.028.348,5.287,5.287,0,0,1,1.655,1.185,6.271,6.271,0,0,1,1.071,1.5,6.1,6.1,0,0,1,.549,1.489,5.775,5.775,0,0,1,.192,1.307,7.2,7.2,0,0,1,0,1,3.438,3.438,0,0,1-.1.618Z" transform="translate(-20.22 -8.646)" fill="#454747"/>
      <path id="Trazado_317" data-name="Trazado 317" d="M119.654,73.554l-.244-.81c-.078-.253-.183-.54-.322-.871a5.158,5.158,0,0,0-.226-.514c-.087-.174-.165-.357-.279-.54a9.422,9.422,0,0,0-.74-1.106,6.1,6.1,0,0,0-1.037-.993,4.407,4.407,0,0,0-1.219-.706,3.606,3.606,0,0,0-2.718,0,4.529,4.529,0,0,0-1.219.714,6.8,6.8,0,0,0-.941,1.01,9.048,9.048,0,0,0-.732,1.115,4.46,4.46,0,0,0-.27.54,3.8,3.8,0,0,0-.235.514c-.131.331-.235.627-.314.871l-.235.8-.052-.218a5.331,5.331,0,0,1-.113-.627,6.889,6.889,0,0,1,0-.993,5.731,5.731,0,0,1,.183-1.307,5.9,5.9,0,0,1,.54-1.5,6.184,6.184,0,0,1,1.054-1.5,5.287,5.287,0,0,1,3.78-1.69,5.226,5.226,0,0,1,2.125.479,5.287,5.287,0,0,1,1.655,1.185,6.271,6.271,0,0,1,1.071,1.5,6.1,6.1,0,0,1,.549,1.489,5.775,5.775,0,0,1,.192,1.3,7.333,7.333,0,0,1,0,1.01,3.435,3.435,0,0,1-.1.618Z" transform="translate(-14.046 -8.476)" fill="#454747"/>
      <path id="Trazado_318" data-name="Trazado 318" d="M135.59,71.532s2.97-.949,4.712.1a4.225,4.225,0,0,1-2.361,2.761S135.66,73.16,135.59,71.532Z" transform="translate(-17.509 -9.171)" fill="#454747"/>
      <path id="Trazado_319" data-name="Trazado 319" d="M133.67,76.24a7.735,7.735,0,0,0,1.742,1.185,1.367,1.367,0,0,0,.871.165h.087l.07-.052a.322.322,0,0,0,.131-.192,1.9,1.9,0,0,0,.2-.4,10.828,10.828,0,0,0,.47-1.969c.1-.679.2-1.368.261-2.047l.714.061a18.418,18.418,0,0,0,0,2.3,6.11,6.11,0,0,0,.148,1.124,4.9,4.9,0,0,0,.131.54,3.256,3.256,0,0,0,.183.514,1.664,1.664,0,0,0,.261.453c0,.078.113.113.165.165a.438.438,0,0,0,.192.139l.226.1h.5l.287-.061a3.292,3.292,0,0,0,.976-.514,4.886,4.886,0,0,0,.871-.8,3.98,3.98,0,0,1-.714.958,3.344,3.344,0,0,1-1.019.714l-.279.087h-.679l-.331-.1a1.742,1.742,0,0,1-.566-.392,2.4,2.4,0,0,1-.375-.54,4.268,4.268,0,0,1-.436-1.176,9.578,9.578,0,0,1-.2-1.2,14.97,14.97,0,0,1-.113-2.3l.714.061a21.207,21.207,0,0,1-.322,2.108,8.58,8.58,0,0,1-.645,2.064,2.221,2.221,0,0,1-.322.505.871.871,0,0,1-.235.218c-.061,0,0,0-.157.078h-.165a1.4,1.4,0,0,1-.61-.061,2.352,2.352,0,0,1-.514-.253,6.324,6.324,0,0,1-1.516-1.472Z" transform="translate(-17.261 -9.402)" fill="#454747"/>
      <ellipse id="Elipse_3" data-name="Elipse 3" cx="7.09" cy="4.32" rx="7.09" ry="4.32" transform="translate(140.205 69.129)" fill="#ffe5dc"/>
      <ellipse id="Elipse_4" data-name="Elipse 4" cx="7.09" cy="4.32" rx="7.09" ry="4.32" transform="translate(89.198 67.23)" fill="#ffe5dc"/>
      <path id="Trazado_320" data-name="Trazado 320" d="M43.663,71.559c-.218,2.526-3.754,4.268-7.883,3.9s-7.308-2.709-7.081-5.226,3.754-4.268,7.891-3.9S43.889,69.042,43.663,71.559Z" transform="translate(-3.721 -8.545)" fill="#ffcdb8" opacity="0.4"/>
      <ellipse id="Elipse_5" data-name="Elipse 5" cx="4.582" cy="7.517" rx="4.582" ry="7.517" transform="translate(76.983 73.95) rotate(-84.93)" fill="#ffcdb8" opacity="0.4"/>
      <path id="Trazado_321" data-name="Trazado 321" d="M12.032,80.914l-.427.383-.505.462-.322.287-.165.157-.1.122a13.822,13.822,0,0,0-1.1,1.289,6.41,6.41,0,0,0-.645.984,8.074,8.074,0,0,0-.618,1.158,9.66,9.66,0,0,0-.531,1.333l-.235.723-.165.775a12.639,12.639,0,0,0-.244,3.336,12.194,12.194,0,0,0,.749,3.484,10.844,10.844,0,0,0,1.864,3.057c.209.218.436.409.653.618l.165.165.078.078h0c-.209-.148-.044,0-.1-.061h0l.061.044.479.34.235.148a3.136,3.136,0,0,0,.348.192,6.47,6.47,0,0,0,.871.348,20.1,20.1,0,0,0,3.981.871c2.831.418,5.81.653,8.458,1.742a9.285,9.285,0,0,1,3.362,2.343,7.708,7.708,0,0,1,1.533,2.8,8.031,8.031,0,0,1,.279,1.089,5.731,5.731,0,0,1,.122.793,2.446,2.446,0,0,0,.07.653,1.594,1.594,0,0,1-3.144.505v-.165l-.122-.436a2.91,2.91,0,0,0-.148-.549,3.65,3.65,0,0,0-.253-.679,4.05,4.05,0,0,0-1-1.455,5.409,5.409,0,0,0-2.064-1.1,15.461,15.461,0,0,0-3.319-.514c-1.272-.087-2.674-.1-4.216-.174a26.131,26.131,0,0,1-5.026-.618,13.175,13.175,0,0,1-1.385-.427c-.244-.1-.462-.165-.732-.287l-.8-.409-.523-.3H7.389l-.122-.087h0l-.148-.113-.348-.261c-.392-.3-.793-.584-1.167-.871a17.194,17.194,0,0,1-3.562-4.582A18.884,18.884,0,0,1,.3,92.821a19.7,19.7,0,0,1-.183-5.183c.052-.418.087-.819.139-1.219s.157-.784.235-1.167a16.375,16.375,0,0,1,.61-2.186,15.173,15.173,0,0,1,.775-1.951,12.655,12.655,0,0,1,.871-1.681,20.617,20.617,0,0,1,1.847-2.709l.218-.27.157-.183.261-.357.453-.514.418-.427a4.2,4.2,0,0,1,6.254,5.609Z" transform="translate(-0.024 -9.485)" fill="#757f7d"/>
      <path id="Trazado_322" data-name="Trazado 322" d="M161.221,93.4s35.155,31.618-1.7,62.1c0,0-4.791,1.132-5.644-1.124s-1.15-10.731-1.15-10.731-9.32-2.543-11.576,0-2.3,11.428-5.636,12.264c-2.448.61-4.991.279-5.7-.244-1.446-1.045-1.742-17.708-1.428-30.416s-4.512-28.509-4.512-28.509Z" transform="translate(-15.999 -12.042)" fill="#f1f1f1"/>
      <path id="Trazado_323" data-name="Trazado 323" d="M125.968,111.508s-9.128,10.862-17.342,14.59-1.8,9.712,3.005,7.334c3.545-1.742,12.891-5.139,18.98-14.459S125.968,111.508,125.968,111.508Z" transform="translate(-13.522 -14.358)" fill="#f1f1f1"/>
      <path id="Trazado_324" data-name="Trazado 324" d="M202.157,81.739l.348.392.427.47c.078.1.174.192.261.3l.157.165.192.253a17.421,17.421,0,0,1,1.742,2.509,12.433,12.433,0,0,1,.81,1.559,14.137,14.137,0,0,1,.714,1.8,14.806,14.806,0,0,1,.557,2.021c.07.348.148.714.218,1.08s.087.749.131,1.124a17.421,17.421,0,0,1-1.794,9.694,15.792,15.792,0,0,1-3.3,4.242c-.348.287-.714.557-1.08.871l-.27.209-.131.1h0l-.122.078h-.061l-.479.279-.749.375c-.244.113-.444.174-.671.261a9.441,9.441,0,0,1-1.289.392,23.422,23.422,0,0,1-4.721.636c-1.42.061-2.718.087-3.9.165a14.259,14.259,0,0,0-3.057.479,4.887,4.887,0,0,0-1.916,1.01,3.893,3.893,0,0,0-.932,1.35,4.728,4.728,0,0,0-.235.627,4.357,4.357,0,0,0-.131.505l-.1.436v.148a1.481,1.481,0,0,1-2.918-.462l.07-.6a4.051,4.051,0,0,1,.113-.74,6.472,6.472,0,0,1,.253-1,7.021,7.021,0,0,1,1.42-2.613,8.527,8.527,0,0,1,3.11-2.169c2.448-1,5.226-1.228,7.839-1.62a18.771,18.771,0,0,0,3.684-.871,6,6,0,0,0,.758-.322c.1-.052.253-.122.331-.174a1.8,1.8,0,0,1,.218-.131l.436-.322h.061s.113-.07-.087.061h0l.078-.07.148-.148c.2-.2.418-.383.61-.575a10.634,10.634,0,0,0,1.742-2.84,11.323,11.323,0,0,0,.462-6.306l-.148-.714c-.078-.226-.148-.453-.226-.671a8.707,8.707,0,0,0-.488-1.237,8.867,8.867,0,0,0-.566-1.071,6.543,6.543,0,0,0-.6-.871,11.5,11.5,0,0,0-1.019-1.219l-.1-.113-.157-.139-.3-.27-.47-.427-.383-.357a3.885,3.885,0,1,1,5.226-5.749A.606.606,0,0,1,202.157,81.739Z" transform="translate(-23.218 -10.381)" fill="#f1f1f1"/>
      <path id="Trazado_325" data-name="Trazado 325" d="M132.567,18.006s-8.553-9.337-4.181-13.187,7.177,2.613,7.177,2.613S141.6,2.119,142.6,9.174,132.567,18.006,132.567,18.006Z" transform="translate(-16.419 -0.459)" fill="#ef8f8f"/>
    </g>
  </g>
</svg>
