<svg xmlns="http://www.w3.org/2000/svg" width="150.859" height="149.942" viewBox="0 0 150.859 149.942">
  <g id="Capa_2" data-name="Capa 2" transform="translate(0.006 0.005)">
    <g id="objects" transform="translate(-0.006 -0.005)">
      <path id="Trazado_358" data-name="Trazado 358" d="M96.68,165.49c0,2.831,13.544,5.13,30.242,5.13s30.233-2.3,30.233-5.13-13.536-5.13-30.233-5.13S96.68,162.66,96.68,165.49Z" transform="translate(-12.464 -20.678)" fill="#454747" opacity="0.2"/>
      <path id="Trazado_359" data-name="Trazado 359" d="M12.11,165.49c0,2.831,13.536,5.13,30.233,5.13s30.242-2.3,30.242-5.13-13.536-5.13-30.242-5.13S12.11,162.66,12.11,165.49Z" transform="translate(-1.557 -20.678)" fill="#454747" opacity="0.2"/>
      <path id="Trazado_360" data-name="Trazado 360" d="M91.22,139.093l.418.253.723.47c.27.192.575.4.915.688a8.937,8.937,0,0,1,2.343,2.848,6.8,6.8,0,0,1,.732,2.744,6.664,6.664,0,0,1-.566,3.005,9.4,9.4,0,0,1-3.345,3.85,15.287,15.287,0,0,1-4.19,2.029,16.192,16.192,0,0,1-4.8.775A10.81,10.81,0,0,1,78.1,154.51a7.517,7.517,0,0,1-2.36-2.012l-.122-.157-.1-.139v-.052l-.139-.218-.131-.218-.174-.287c-.253-.409-.418-.775-.6-1.132a25.033,25.033,0,0,1-1.394-4.155c-.322-1.28-.592-2.43-.923-3.406a7.247,7.247,0,0,0-1.176-2.3,5.226,5.226,0,0,0-3.266-1.742,9.758,9.758,0,0,0-1.219-.148h-.549a1.472,1.472,0,1,1,0-2.944h2.1a10.3,10.3,0,0,1,2.517.462,7.935,7.935,0,0,1,3.075,1.777,11.08,11.08,0,0,1,2.282,3.31c.566,1.211.993,2.439,1.446,3.606a18.936,18.936,0,0,0,1.5,3.214,6.794,6.794,0,0,0,.418.618l.1.139.157.2.165.2v.052h0c0,.07-.052-.07-.044-.052h0a2.613,2.613,0,0,0,.819.514,5.557,5.557,0,0,0,2.613.218,10.452,10.452,0,0,0,2.935-.827,8.71,8.71,0,0,0,2.413-1.385,2.4,2.4,0,0,0,.871-1.176c0-.061-.061,0-.087.131a.458.458,0,0,0,0,.209c0,.009-.253-.192-.523-.348l-.392-.226-.287-.139-.453-.209a3.867,3.867,0,1,1,3.319-6.968Z" transform="translate(-8.311 -17.485)" fill="#fff"/>
      <path id="Trazado_361" data-name="Trazado 361" d="M86.909,135.481l-.383.218a3.291,3.291,0,0,0-.409.261,2.369,2.369,0,0,0-.357.314.653.653,0,0,0-.131.584,3.484,3.484,0,0,0,.645,1.524,6.916,6.916,0,0,0,1.742,1.742,6.428,6.428,0,0,0,2.247.976,3.353,3.353,0,0,0,2.108-.131,3.484,3.484,0,0,0,1.045-.723l.244-.218.27-.27c.174-.2.357-.383.531-.6a28.082,28.082,0,0,0,1.977-2.874,33.03,33.03,0,0,1,2.125-3.127,9.9,9.9,0,0,1,2.918-2.57,8.022,8.022,0,0,1,3.249-.984,10.9,10.9,0,0,1,2.421.1,13.062,13.062,0,0,1,1.446.3l.5.122a1.473,1.473,0,0,1-.557,2.892h-.1l-.418-.052a10.07,10.07,0,0,0-1.176-.1,7.784,7.784,0,0,0-1.681.122,4.46,4.46,0,0,0-1.742.766,6.1,6.1,0,0,0-1.577,1.8,28.379,28.379,0,0,0-1.507,2.9,30.572,30.572,0,0,1-1.925,3.571c-.192.314-.418.627-.645.932l-.357.462-.427.5a9.023,9.023,0,0,1-1.995,1.742,8.823,8.823,0,0,1-5.409,1.228,12.1,12.1,0,0,1-4.738-1.42,13.4,13.4,0,0,1-3.65-2.813,10.452,10.452,0,0,1-2.317-4,8,8,0,0,1,0-4.677,8.414,8.414,0,0,1,1.8-3.188,9.649,9.649,0,0,1,1.6-1.455l.392-.3a3.868,3.868,0,0,1,4.625,6.2C87.162,135.324,87.031,135.4,86.909,135.481Z" transform="translate(-10.123 -16.538)" fill="#757f7d"/>
      <path id="Trazado_362" data-name="Trazado 362" d="M25.728,103.465s-16.036,35.128,1.516,54.361c0,0,6.533,1.141,7.395-.871s.139-8.362,1.9-9.721c.827-1.228,7.317-2.125,9.581.1s1.742,9.965,5.226,10.452,3.972.279,5.636-.557,8.44-20.26,8.153-31.357-6.062-25.608-6.062-25.608Z" transform="translate(-2.449 -12.927)" fill="#f1f1f1"/>
      <path id="Trazado_363" data-name="Trazado 363" d="M81.534,38.522s-9.9-23.222-5.426-27.115,25.53,6.968,28.482,10.9S81.534,38.522,81.534,38.522Z" transform="translate(-9.661 -1.36)" fill="#757f7d"/>
      <path id="Trazado_364" data-name="Trazado 364" d="M154.176,27.872s3.319-25.042-2.047-27.6S129.4,13.805,127.618,18.4,154.176,27.872,154.176,27.872Z" transform="translate(-16.444 0.005)" fill="#757f7d"/>
      <path id="Trazado_365" data-name="Trazado 365" d="M150.022,24.1s1.855-14.015-1.141-15.443S136.155,16.235,135.153,18.8,150.022,24.1,150.022,24.1Z" transform="translate(-17.42 -1.093)" fill="#ffcdb8"/>
      <path id="Trazado_366" data-name="Trazado 366" d="M97.6,24.018s-11.933-7.569-14.485-5.444S84.644,33.3,86.6,35.289,97.6,24.018,97.6,24.018Z" transform="translate(-10.61 -2.343)" fill="#ffcdb8"/>
      <path id="Trazado_367" data-name="Trazado 367" d="M115.632,14.985s33.195-3.571,43.664,31.923-31.923,40.86-51.329,38.813S70.626,65.8,81.409,39.731C90.607,17.511,115.632,14.985,115.632,14.985Z" transform="translate(-10.076 -1.916)" fill="#757f7d"/>
      <path id="Trazado_368" data-name="Trazado 368" d="M134.8,66.549s1.089,4.355-.871,4.886-3.554-3.562-3.554-3.562A3.066,3.066,0,0,0,132.4,64.65S133.533,67.089,134.8,66.549Z" transform="translate(-16.811 -8.334)" fill="#ffcdb8"/>
      <path id="Trazado_369" data-name="Trazado 369" d="M133.906,59.344s-3.258-.549-4.886.81a4.46,4.46,0,0,0,2.9,2.535S134.089,61.06,133.906,59.344Z" transform="translate(-16.635 -7.636)" fill="#454747"/>
      <path id="Trazado_370" data-name="Trazado 370" d="M136.145,64.031a6.968,6.968,0,0,1-1.385,1.742,2.5,2.5,0,0,1-.5.34,1.35,1.35,0,0,1-.636.157h-.183a.818.818,0,0,1-.174-.07.871.871,0,0,1-.287-.183,2.255,2.255,0,0,1-.409-.488,9.581,9.581,0,0,1-.984-2.073,20.037,20.037,0,0,1-.662-2.16l.74-.165A15.68,15.68,0,0,1,132,63.665a10.794,10.794,0,0,1,0,1.3,1.649,1.649,0,0,1-.087.645,3.667,3.667,0,0,1-.183.653,2.613,2.613,0,0,1-.314.618,1.063,1.063,0,0,1-.244.279.81.81,0,0,1-.287.226l-.34.165h-1.028a3.484,3.484,0,0,1-1.176-.6,4.137,4.137,0,0,1-.871-.871,5.27,5.27,0,0,0,1.01.706,3.249,3.249,0,0,0,1.106.392h.575l.253-.061.209-.131c.078,0,.131-.113.183-.174a.728.728,0,0,0,.157-.2,2.448,2.448,0,0,0,.209-.514,3.71,3.71,0,0,0,.113-.557,2.306,2.306,0,0,1,.052-.592v-1.2A18.493,18.493,0,0,0,131,61.33l.74-.174c.165.706.375,1.411.584,2.108a12.194,12.194,0,0,0,.8,1.995,2.432,2.432,0,0,0,.27.383.357.357,0,0,0,.157.131s.131.07.078.052h.1a1.455,1.455,0,0,0,.871-.314A7.839,7.839,0,0,0,136.145,64.031Z" transform="translate(-16.435 -7.88)" fill="#454747"/>
      <path id="Trazado_371" data-name="Trazado 371" d="M100.294,64.949l.366.766c.122.226.27.5.462.8a2.866,2.866,0,0,0,.3.47c.113.165.226.331.357.488a8.712,8.712,0,0,0,.871.976,6.1,6.1,0,0,0,1.15.871,4.669,4.669,0,0,0,1.315.505,3.8,3.8,0,0,0,.7.078,2.36,2.36,0,0,0,.348,0h.279l.444-.1a1.22,1.22,0,0,0,.3-.1,3.805,3.805,0,0,0,.61-.287,4.355,4.355,0,0,0,1.089-.871,5.819,5.819,0,0,0,.871-1.15,7.788,7.788,0,0,0,.549-1.211,5.58,5.58,0,0,0,.183-.584,3.343,3.343,0,0,0,.148-.54c.078-.348.131-.653.174-.871l.1-.871.087.209a6.228,6.228,0,0,1,.209.6,6.662,6.662,0,0,1,.192.976,5.418,5.418,0,0,1,0,1.315,5.958,5.958,0,0,1-.3,1.568,6.1,6.1,0,0,1-.8,1.646,5.435,5.435,0,0,1-1.446,1.446,3.092,3.092,0,0,1-.462.279,3.485,3.485,0,0,1-.514.244,6.01,6.01,0,0,1-.984.287h-.61a3.85,3.85,0,0,1-.549,0,4.826,4.826,0,0,1-1.071-.174,5.453,5.453,0,0,1-1.829-.871,6.1,6.1,0,0,1-1.289-1.315,6.4,6.4,0,0,1-.784-1.385,5.861,5.861,0,0,1-.392-1.254,7.1,7.1,0,0,1-.131-.993v-.627Z" transform="translate(-12.925 -8.162)" fill="#454747"/>
      <path id="Trazado_372" data-name="Trazado 372" d="M148.294,57.6l.366.758c.122.235.27.505.462.81a2.864,2.864,0,0,0,.3.47c.113.157.226.331.357.488a9.5,9.5,0,0,0,.915.976,6.1,6.1,0,0,0,1.15.819,4.416,4.416,0,0,0,1.315.505,3.162,3.162,0,0,0,.7.078,2.325,2.325,0,0,0,.348,0h.279l.444-.1a2.945,2.945,0,0,0,.3-.1,3.808,3.808,0,0,0,.61-.287,4.355,4.355,0,0,0,1.089-.871,5.766,5.766,0,0,0,.827-1.141,8.171,8.171,0,0,0,.549-1.211c.078-.2.131-.4.183-.584a3.607,3.607,0,0,0,.148-.54c.078-.348.131-.662.174-.923l.1-.871.087.2c.044.139.139.34.209.6a6.8,6.8,0,0,1,.192.984,5.419,5.419,0,0,1,0,1.315,5.837,5.837,0,0,1-.3,1.559,6.027,6.027,0,0,1-.8,1.655,5.436,5.436,0,0,1-1.446,1.446,4.058,4.058,0,0,1-.462.279,2.788,2.788,0,0,1-.514.235,6.011,6.011,0,0,1-.984.287h-1.158a4.826,4.826,0,0,1-1.071-.174,5.313,5.313,0,0,1-1.829-.871,6.1,6.1,0,0,1-1.289-1.307,6.4,6.4,0,0,1-.784-1.385,6.019,6.019,0,0,1-.392-1.254,7.1,7.1,0,0,1-.131-.993v-.636Z" transform="translate(-19.115 -7.203)" fill="#454747"/>
      <path id="Trazado_373" data-name="Trazado 373" d="M143.812,87s16.776,43.316-1.829,67.069c0,0-5.226,1.228-6.1-1.219s-1.219-11.585-1.219-11.585-10.069-2.752-12.508,0-2.178,11.768-5.784,12.665c-2.613.662-4.773.662-5.54.1-1.559-1.132-9.111-25.582-8.806-39.309S108.4,83,108.4,83Z" transform="translate(-13.153 -10.701)" fill="#757f7d"/>
      <path id="Trazado_374" data-name="Trazado 374" d="M78.664,45.8s6.1-23.012,1.394-26.052S57.167,29.691,54.981,33.776,78.664,45.8,78.664,45.8Z" transform="translate(-7.069 -2.484)" fill="#f1f1f1"/>
      <path id="Trazado_375" data-name="Trazado 375" d="M9.631,46.072S3.15,23.138,7.81,20.028s23.047,9.581,25.338,13.614S9.631,46.072,9.631,46.072Z" transform="translate(-0.785 -2.516)" fill="#f1f1f1"/>
      <path id="Trazado_376" data-name="Trazado 376" d="M14.6,41.8S10.967,28.972,13.58,27.23s12.909,5.339,14.18,7.6S14.6,41.8,14.6,41.8Z" transform="translate(-1.624 -3.473)" fill="#ffcdb8"/>
      <path id="Trazado_377" data-name="Trazado 377" d="M63.57,34.405s10.121-8.71,12.8-7.047.566,13.936-.958,16.079S63.57,34.405,63.57,34.405Z" transform="translate(-8.194 -3.497)" fill="#ffcdb8"/>
      <path id="Trazado_378" data-name="Trazado 378" d="M36.878,29.109S5.4,30.259.417,64.812s35.294,33.883,53.176,29.3,32.228-23.622,18.588-46.5C60.588,28.142,36.878,29.109,36.878,29.109Z" transform="translate(0.006 -3.749)" fill="#f1f1f1"/>
      <path id="Trazado_379" data-name="Trazado 379" d="M56.8,69.146l.235.81c.087.253.192.54.331.871a3.71,3.71,0,0,0,.226.514c.087.174.165.357.279.54a9.077,9.077,0,0,0,.74,1.106,6.1,6.1,0,0,0,1.01.993,4.407,4.407,0,0,0,1.219.706,3.676,3.676,0,0,0,.671.192c.113,0,.226.052.348.052h.706a.6.6,0,0,0,.322-.052,4.355,4.355,0,0,0,.645-.192,4.66,4.66,0,0,0,1.219-.714,6.8,6.8,0,0,0,1-1,9.05,9.05,0,0,0,.775-1.124,4.458,4.458,0,0,0,.27-.54,3.8,3.8,0,0,0,.235-.514c.131-.331.226-.627.314-.871.148-.514.235-.8.235-.8l.052.218a4.224,4.224,0,0,1,.1.618,5.139,5.139,0,0,1,0,1,5.679,5.679,0,0,1-.174,1.3,5.775,5.775,0,0,1-.54,1.5,6.1,6.1,0,0,1-1.054,1.507,5.435,5.435,0,0,1-1.655,1.2,4.357,4.357,0,0,1-.505.2,3.032,3.032,0,0,1-.54.157,5.592,5.592,0,0,1-1.01.122h-.618a3.988,3.988,0,0,1-.549-.087,4.608,4.608,0,0,1-1.028-.348A5.436,5.436,0,0,1,58.4,75.322a6.472,6.472,0,0,1-1.063-1.5,6.1,6.1,0,0,1-.549-1.489,5.775,5.775,0,0,1-.192-1.307,7.2,7.2,0,0,1,0-1,3.436,3.436,0,0,1,.1-.618Z" transform="translate(-7.292 -8.911)" fill="#454747"/>
      <path id="Trazado_380" data-name="Trazado 380" d="M8.885,67.826l.235.81c.087.253.192.54.331.871a3.624,3.624,0,0,0,.226.505,5.426,5.426,0,0,0,.279.549,9.8,9.8,0,0,0,.74,1.106,6.42,6.42,0,0,0,1.01.993,4.634,4.634,0,0,0,1.219.706,4.077,4.077,0,0,0,1.359.253,3.737,3.737,0,0,0,1.359-.261,4.7,4.7,0,0,0,1.219-.723,6.358,6.358,0,0,0,1-.993,9.05,9.05,0,0,0,.732-1.115,4.46,4.46,0,0,0,.27-.54,3.8,3.8,0,0,0,.235-.514c.131-.331.226-.627.314-.871l.235-.8.052.209a4.616,4.616,0,0,1,.1.627,5.113,5.113,0,0,1,0,1,5.679,5.679,0,0,1-.174,1.3,5.9,5.9,0,0,1-.54,1.5,6.219,6.219,0,0,1-1.054,1.507,5.418,5.418,0,0,1-1.655,1.193,5.287,5.287,0,0,1-2.125.488,5.331,5.331,0,0,1-2.125-.47,5.435,5.435,0,0,1-1.664-1.185,6.472,6.472,0,0,1-1.063-1.5,6.236,6.236,0,0,1-.549-1.489,5.775,5.775,0,0,1-.192-1.307,7.16,7.16,0,0,1,0-1,3.435,3.435,0,0,1,.1-.618Z" transform="translate(-1.11 -8.74)" fill="#454747"/>
      <path id="Trazado_381" data-name="Trazado 381" d="M35.994,79.143s-.418,4.2,1.507,4.434,2.848-3.806,2.848-3.806A2.883,2.883,0,0,1,38.033,77S37.266,79.474,35.994,79.143Z" transform="translate(-4.632 -9.927)" fill="#ffcdb8"/>
      <path id="Trazado_382" data-name="Trazado 382" d="M35.78,72.312s2.97-.949,4.669.1a4.2,4.2,0,0,1-2.36,2.761S35.841,73.94,35.78,72.312Z" transform="translate(-4.609 -9.271)" fill="#454747"/>
      <path id="Trazado_383" data-name="Trazado 383" d="M33.86,77.025A7.56,7.56,0,0,0,35.55,78.2a1.394,1.394,0,0,0,.871.174h.087l.087-.052a.348.348,0,0,0,.131-.157,2.752,2.752,0,0,0,.192-.392,11.2,11.2,0,0,0,.479-1.969c.1-.679.2-1.368.261-2.047l.714.061a16.759,16.759,0,0,0,0,2.291,6.1,6.1,0,0,0,.139,1.132,4.895,4.895,0,0,0,.131.54,4.46,4.46,0,0,0,.183.514,2.212,2.212,0,0,0,.261.444.557.557,0,0,0,.174.174c.061.052.113.122.192.139l.218.1H40.2l.287-.052a3.2,3.2,0,0,0,.976-.514,5.714,5.714,0,0,0,.871-.8,4.033,4.033,0,0,1-.723.949,3.127,3.127,0,0,1-1.019.723l-.279.078-.165.052h-.505l-.34-.113a1.577,1.577,0,0,1-.557-.392,2.491,2.491,0,0,1-.383-.531,5.052,5.052,0,0,1-.436-1.176,11.322,11.322,0,0,1-.2-1.211,15.913,15.913,0,0,1,0-2.413l.714.061a21.21,21.21,0,0,1-.322,2.108,8.58,8.58,0,0,1-.645,2.064,2.221,2.221,0,0,1-.322.505.975.975,0,0,1-.244.209.575.575,0,0,1-.148.087H36.6a1.211,1.211,0,0,1-.618-.061,2.081,2.081,0,0,1-.505-.244A6.489,6.489,0,0,1,33.86,77.025Z" transform="translate(-4.362 -9.508)" fill="#454747"/>
      <path id="Trazado_384" data-name="Trazado 384" d="M61.17,84.455c0,2.387,3.179,4.355,7.09,4.355s7.09-1.934,7.09-4.355S72.18,80.1,68.26,80.1,61.17,82.069,61.17,84.455Z" transform="translate(-7.884 -10.327)" fill="#ffe5dc"/>
      <path id="Trazado_385" data-name="Trazado 385" d="M2.62,82.265c0,2.387,3.179,4.355,7.09,4.355s7.09-1.942,7.09-4.355S13.621,77.91,9.71,77.91,2.62,79.879,2.62,82.265Z" transform="translate(-0.333 -10.044)" fill="#ffe5dc"/>
      <path id="Trazado_386" data-name="Trazado 386" d="M152.888,71.559c.218,2.526,3.754,4.268,7.883,3.9s7.308-2.709,7.081-5.226-3.754-4.268-7.839-3.9S152.662,69.042,152.888,71.559Z" transform="translate(-19.712 -8.545)" fill="#ffcdb8" opacity="0.4"/>
      <path id="Trazado_387" data-name="Trazado 387" d="M92.718,80.4c.226,2.517,3.754,4.268,7.891,3.893s7.3-2.7,7.073-5.226-3.754-4.259-7.883-3.893S92.492,77.873,92.718,80.4Z" transform="translate(-11.952 -9.685)" fill="#ffcdb8" opacity="0.4"/>
      <path id="Trazado_388" data-name="Trazado 388" d="M126.678,117.744s-16.61-9.581-13.283-16.549c4.791-10.017,12.56.375,12.56.375S133.637,91.9,138,100.324,126.678,117.744,126.678,117.744Z" transform="translate(-14.563 -12.485)" fill="#ef8f8f"/>
      <path id="Trazado_389" data-name="Trazado 389" d="M147.646,92.84s12.848,0,10.888,11.323c-2.09,12.081-20.034,5.226-20.034,5.226" transform="translate(-17.858 -11.97)" fill="none" stroke="#757f7d" stroke-linecap="round" stroke-linejoin="round" stroke-width="10"/>
      <path id="Trazado_390" data-name="Trazado 390" d="M106.72,93.87c-7.473,1.368-13.118,8.71-7.36,16.088,4.207,5.366,11.437,3.65,16.811,1.742" transform="translate(-12.505 -12.103)" fill="none" stroke="#757f7d" stroke-linecap="round" stroke-linejoin="round" stroke-width="10"/>
      <path id="Trazado_391" data-name="Trazado 391" d="M44.709,129.346s16.332-9.433,13.065-16.271c-4.712-9.86-12.351.366-12.351.366s-7.56-9.512-11.855-1.228S44.709,129.346,44.709,129.346Z" transform="translate(-4.227 -14.026)" fill="#ef8f8f"/>
      <path id="Trazado_392" data-name="Trazado 392" d="M26.062,105.48s-11.95,0-10.13,10.539c1.951,11.236,18.64,4.86,18.64,4.86" transform="translate(-2.025 -13.6)" fill="none" stroke="#f1f1f1" stroke-linecap="round" stroke-linejoin="round" stroke-width="8.85"/>
      <path id="Trazado_393" data-name="Trazado 393" d="M64.243,106.44c6.968,1.272,12.194,8.135,6.855,14.964-3.911,4.991-10.644,3.4-15.678,1.611" transform="translate(-7.143 -13.724)" fill="none" stroke="#f1f1f1" stroke-linecap="round" stroke-linejoin="round" stroke-width="8.85"/>
    </g>
  </g>
</svg>
