<svg xmlns="http://www.w3.org/2000/svg" width="177.624" height="149.942" viewBox="0 0 177.624 149.942">
  <g id="Capa_2" data-name="Capa 2" transform="translate(-0.001 0.043)">
    <g id="objects" transform="translate(0.001 -0.043)">
      <path id="Trazado_326" data-name="Trazado 326" d="M113.23,164.48c-.052,2.837,13.47,5.4,30.205,5.7s30.336-1.746,30.389-4.574-13.47-5.4-30.2-5.7S113.282,161.634,113.23,164.48Z" transform="translate(-14.382 -20.268)" fill="#454747" opacity="0.2"/>
      <ellipse id="Elipse_6" data-name="Elipse 6" cx="5.142" cy="30.301" rx="5.142" ry="30.301" transform="translate(16.286 147.979) rotate(-88.93)" fill="#454747" opacity="0.2"/>
      <path id="Trazado_327" data-name="Trazado 327" d="M95.411,131.745l.48.262.681.393c.3.166.594.358.943.576a18.751,18.751,0,0,1,2.409,1.912,11.645,11.645,0,0,1,2.619,3.632,8.992,8.992,0,0,1,.576,5.77,10.816,10.816,0,0,1-2.846,5.072,13.837,13.837,0,0,1-4.644,3.125,11.035,11.035,0,0,1-6,.812,7.63,7.63,0,0,1-3.213-1.318,7.218,7.218,0,0,1-.69-.567l-.323-.306-.1-.1h0v-.052l-.1-.113c-.2-.236-.576-.7-.873-1.074a23.135,23.135,0,0,1-2.3-4.3c-.585-1.362-1.074-2.619-1.589-3.71a13.1,13.1,0,0,0-1.624-2.741,5.9,5.9,0,0,0-3.605-2.191,5.241,5.241,0,0,0-.733-.113,5.011,5.011,0,0,0-.567-.044h-.6a1.518,1.518,0,0,1-.087-3.021h.611a6.562,6.562,0,0,1,.751,0,7.2,7.2,0,0,1,1.021.044,9.49,9.49,0,0,1,2.8.663,9.882,9.882,0,0,1,3.143,2.13,16.892,16.892,0,0,1,2.505,3.317c.725,1.2,1.379,2.453,2.052,3.649a18.586,18.586,0,0,0,2.165,3.23c.2.218.306.332.62.629l.1.1h.052l-.052-.052h0l.1.079.21.122a2.471,2.471,0,0,0,1.013.253,5.8,5.8,0,0,0,2.82-.751,8.023,8.023,0,0,0,2.409-1.982,4.208,4.208,0,0,0,.969-2.121,2.086,2.086,0,0,0-.349-1.379,7.036,7.036,0,0,0-2.619-2.156c-.227-.113-.437-.227-.6-.3l-.454-.244-.5-.218a3.877,3.877,0,1,1,3.082-7.115Z" transform="translate(-9.134 -16.631)" fill="#f1f1f1"/>
      <path id="Trazado_328" data-name="Trazado 328" d="M96.221,125.693l-.436.41-.515.48c-.21.192-.323.34-.524.541a7.43,7.43,0,0,0-.629.69,10.477,10.477,0,0,0-.69.873,10.178,10.178,0,0,0-1.248,2.156,6.207,6.207,0,0,0-.533,2.479,4.278,4.278,0,0,0,.742,2.409,4.365,4.365,0,0,0,2.217,1.676,3.963,3.963,0,0,0,2.863-.113l.175-.07h.087l-.079.052h0l.061-.044c.157-.1.384-.227.489-.306l.279-.192.367-.306a15.356,15.356,0,0,0,1.475-1.519c1-1.126,1.973-2.418,3.073-3.649a15.364,15.364,0,0,1,3.911-3.309,8.573,8.573,0,0,1,4.889-1.082,11.3,11.3,0,0,1,3.815,1.056,18.49,18.49,0,0,1,2.462,1.406c.637.428,1.109.786,1.432,1.039l.489.375a1.475,1.475,0,0,1-1.685,2.418h-.079l-.471-.3a15.486,15.486,0,0,0-1.336-.8,15.146,15.146,0,0,0-2.113-.986,7.971,7.971,0,0,0-2.671-.5,4.566,4.566,0,0,0-2.671.873,11.235,11.235,0,0,0-2.619,2.663c-.873,1.135-1.685,2.453-2.706,3.841a21.431,21.431,0,0,1-1.746,2.13l-.541.524c-.2.192-.445.393-.672.576s-.349.262-.524.393l-.061.052-.175.1-.175.113-.367.218a9.5,9.5,0,0,1-6.635.986,10.258,10.258,0,0,1-5.526-3.44,10.685,10.685,0,0,1-2.505-5.683,12.746,12.746,0,0,1,.489-5.325,17.2,17.2,0,0,1,1.746-3.841c.306-.533.611-1,.873-1.423a14.144,14.144,0,0,1,.873-1.152,10.913,10.913,0,0,1,.725-.873l.419-.576.384-.445h0a3.876,3.876,0,1,1,5.823,5.116,3.592,3.592,0,0,1-.227.279Z" transform="translate(-10.8 -15.074)" fill="#757f7d"/>
      <path id="Trazado_329" data-name="Trazado 329" d="M68.386,141.419h0c.2-.672.393-1.362.576-2.052l.052-.192c.175-.655.34-1.318.506-1.99l.079-.314c.157-.655.306-1.318.454-1.973l.052-.279c.148-.681.288-1.371.41-2.043h0c.122-.672.227-1.327.332-1.982v-.262c.1-.62.175-1.24.244-1.842v-.332c.061-.594.113-1.179.14-1.746v-.262c0-.594.052-1.179,0-1.746-.079-11.131-5.578-25.814-5.578-25.814L32.14,101.209v.113l-.07.148-.044.1-.1.227c0,.052-.044.1-.061.157s-.1.21-.148.332l-.07.157c-.157.367-.349.8-.559,1.318a.712.712,0,0,1-.1.244c-.035.079-.148.375-.236.576s-.079.21-.122.323-.157.4-.236.611-.087.236-.14.358-.175.471-.262.716-.087.218-.122.34c-.14.358-.271.733-.4,1.126h0c-.14.384-.271.786-.41,1.2-.044.14-.087.279-.14.428-.1.279-.183.567-.279.873l-.157.515c-.1.288-.183.567-.271.873l-.157.55c-.1.306-.183.62-.271.934-.052.183-.1.358-.148.541-.122.428-.236.873-.349,1.3a2.061,2.061,0,0,1-.1.384c-.113.445-.227.873-.332,1.353v.157h0A71.4,71.4,0,0,0,25.077,129.5c-3.605,4.618-7.132,11.235-8.2,16.482,0,0,2.942,5.954,5.046,5.482,1-.218,7.665-3.09,14.492-5.954a1.528,1.528,0,0,0,.306.122c.873-1.213,12.946-2.322,15.216-.052a3.424,3.424,0,0,1,.375.471,3,3,0,0,1,.192.332c.044.079.1.157.131.236s.113.262.166.393a2.513,2.513,0,0,1,.113.271c.052.14.1.3.148.445l.1.279c.044.166.1.332.14.506s0,.175.07.271a2.5,2.5,0,0,1,.14.585l.052.21c.14.594.271,1.2.4,1.746a.379.379,0,0,0,.061.253,2.577,2.577,0,0,1,.14.559l.079.306a1.888,1.888,0,0,0,.14.48l.1.314a1.315,1.315,0,0,0,.148.428l.122.306c.052.131.113.253.175.375a2.617,2.617,0,0,0,.14.271c.061.113.14.227.21.332l.157.227a2.505,2.505,0,0,0,.253.271l.175.175a1.972,1.972,0,0,0,.332.218,1.847,1.847,0,0,0,.175.1,2.087,2.087,0,0,0,.585.183c3.448.559,3.972.349,5.657-.454a.533.533,0,0,0,.175-.131l.061-.079a1.544,1.544,0,0,0,.148-.175l.087-.122c.052-.07.1-.148.148-.227l.1-.175.166-.288.113-.2.183-.358c0-.07.07-.148.113-.227s.131-.279.2-.428a2.088,2.088,0,0,0,.113-.244c.079-.157.157-.332.236-.506l.1-.244c.087-.192.166-.384.253-.594,0-.079.07-.148.1-.227q.14-.34.288-.707l.079-.192c.113-.271.218-.559.332-.873a.506.506,0,0,0,.044-.122c.794-2.06,1.632-4.5,2.409-7.106h0c.1-.349.2-.7.306-1.048Z" transform="translate(-2.145 -12.484)" fill="#f1f1f1"/>
      <path id="Trazado_330" data-name="Trazado 330" d="M69.776,100.624s14.212-2.671,21.685-8.119,9.55,3.274,5.02,6.355c-3.352,2.27-11.043,8.9-22.392,9.6S69.776,100.624,69.776,100.624Z" transform="translate(-8.589 -11.489)" fill="#f1f1f1"/>
      <path id="Trazado_331" data-name="Trazado 331" d="M29.882,99.693s-14.439.873-23-2.619-8.477,5.491-3.326,7.385c3.8,1.4,12.868,5.954,24.06,3.92S29.882,99.693,29.882,99.693Z" transform="translate(-0.001 -12.19)" fill="#f1f1f1"/>
      <path id="Trazado_332" data-name="Trazado 332" d="M100.472,37.237S90.983,13.78,95.54,9.957,120.987,17.4,123.877,21.41,100.472,37.237,100.472,37.237Z" transform="translate(-11.978 -1.128)" fill="#757f7d"/>
      <path id="Trazado_333" data-name="Trazado 333" d="M173.3,27.93S177.1,2.919,171.774.256,148.718,13.43,146.867,18,173.3,27.93,173.3,27.93Z" transform="translate(-18.644 0.043)" fill="#757f7d"/>
      <path id="Trazado_334" data-name="Trazado 334" d="M169.219,24.081s2.121-13.968-.873-15.487-12.877,7.316-13.933,9.935S169.219,24.081,169.219,24.081Z" transform="translate(-19.607 -1.032)" fill="#ffcdb8"/>
      <path id="Trazado_335" data-name="Trazado 335" d="M116.835,22.975s-11.82-7.813-14.422-5.727,1.257,14.788,3.143,16.822S116.835,22.975,116.835,22.975Z" transform="translate(-12.897 -2.108)" fill="#ffcdb8"/>
      <path id="Trazado_336" data-name="Trazado 336" d="M134.97,14.342s33.339-2.925,43.178,32.807S145.4,87.5,125.987,85.08s-37.05-20.629-25.753-46.556C109.846,16.437,134.97,14.342,134.97,14.342Z" transform="translate(-12.281 -1.776)" fill="#757f7d"/>
      <path id="Trazado_337" data-name="Trazado 337" d="M154.079,65.279a3.248,3.248,0,0,1-3.047,3.754A3.736,3.736,0,0,1,147.2,67.2s3.335,1.624,3.4-2.959C150.6,64.24,151.652,67.409,154.079,65.279Z" transform="translate(-18.697 -8.122)" fill="#fff"/>
      <path id="Trazado_338" data-name="Trazado 338" d="M152.455,58.98s-3.256-.6-4.915.725a4.563,4.563,0,0,0,2.855,2.619C150.395,62.28,152.6,60.726,152.455,58.98Z" transform="translate(-18.74 -7.436)" fill="#454747"/>
      <path id="Trazado_339" data-name="Trazado 339" d="M154.594,63.709a6.984,6.984,0,0,1-1.423,1.746,2.436,2.436,0,0,1-.5.323,1.414,1.414,0,0,1-.646.157h-.183a1.747,1.747,0,0,1-.175-.07,1.065,1.065,0,0,1-.279-.192,2.286,2.286,0,0,1-.41-.5,9.542,9.542,0,0,1-.943-2.1c-.253-.716-.436-1.432-.62-2.174l.742-.157a15.608,15.608,0,0,1,.288,2.549,10.663,10.663,0,0,1-.052,1.292,5.67,5.67,0,0,1-.1.655,3.421,3.421,0,0,1-.192.646,2.619,2.619,0,0,1-.323.62,1.431,1.431,0,0,1-.244.271,1.047,1.047,0,0,1-.3.218l-.34.157h-.541a1.379,1.379,0,0,1-.183,0l-.306-.052a3.492,3.492,0,0,1-1.17-.62,4.365,4.365,0,0,1-.873-.873,5.919,5.919,0,0,0,1,.733,3.387,3.387,0,0,0,1.091.4h.576l.253-.052.218-.131a.48.48,0,0,0,.183-.166.724.724,0,0,0,.166-.2,2.2,2.2,0,0,0,.21-.506,2.9,2.9,0,0,0,.131-.559c.044-.192.044-.393.07-.594v-1.2a20.467,20.467,0,0,0-.3-2.427l.742-.157c.157.716.349,1.423.55,2.121a10.947,10.947,0,0,0,.768,2.017,1.747,1.747,0,0,0,.262.384.314.314,0,0,0,.157.14s.122.07.07.052h.1a1.458,1.458,0,0,0,.873-.288,8.337,8.337,0,0,0,1.65-1.467Z" transform="translate(-18.522 -7.678)" fill="#454747"/>
      <path id="Trazado_340" data-name="Trazado 340" d="M176.15,51.66a32.16,32.16,0,0,0-3.055,1.528c-.244.14-.489.271-.725.428s-.48.279-.707.445l-.681.471-.663.5c-.218.166-.41.358-.62.533a5.814,5.814,0,0,0-.585.55,6.929,6.929,0,0,0-.55.585l-.5.62-.436.646a4.279,4.279,0,0,0-.367.681,3.605,3.605,0,0,0-.306.707c-.079.244-.148.489-.236.725l-1.091-.943c.576-.21,1.1-.375,1.659-.524s1.1-.288,1.65-.4,1.117-.183,1.676-.271a13.471,13.471,0,0,1,1.676-.175c.567,0,1.126-.1,1.685-.079h1.685a15.188,15.188,0,0,1,1.667.166c.559.07,1.109.157,1.659.253-.559.07-1.109.14-1.659.192s-1.1.07-1.641.175l-1.624.218c-.541.07-1.074.183-1.606.279s-1.074.192-1.6.314-1.065.21-1.58.367-1.039.262-1.545.436a15.531,15.531,0,0,0-1.484.506l-1.58.629.48-1.571c.1-.306.2-.6.306-.873a5.019,5.019,0,0,1,.384-.873,5.28,5.28,0,0,1,.463-.812c.183-.253.358-.515.541-.759l.629-.681a7.535,7.535,0,0,1,.672-.62,7.334,7.334,0,0,1,.7-.567c.244-.166.489-.349.742-.506a15.951,15.951,0,0,1,1.554-.873c.262-.131.541-.236.8-.349s.541-.227.821-.323a15.163,15.163,0,0,1,3.387-.751Z" transform="translate(-20.916 -6.524)" fill="#454747"/>
      <path id="Trazado_341" data-name="Trazado 341" d="M118.72,61.635a15.592,15.592,0,0,1,3.326-1.013c.288-.052.576-.1.873-.131s.576-.087.873-.1a15.085,15.085,0,0,1,1.746,0,4.117,4.117,0,0,1,.873.061,7.855,7.855,0,0,1,.873.14,8.525,8.525,0,0,1,.873.2l.873.271.873.384a5.038,5.038,0,0,1,.812.471,4.364,4.364,0,0,1,.768.541c.236.21.48.41.716.629l1.2,1.117-1.606.21c-.489.07-1.03.183-1.545.306s-1.03.288-1.554.41-1.03.323-1.545.48-1.03.332-1.536.524-1.03.358-1.536.576l-1.51.62c-.524.183-1,.454-1.51.672s-1.013.454-1.528.672c.428-.358.873-.707,1.3-1.048a15,15,0,0,1,1.362-.986l1.432-.873c.48-.306,1-.515,1.5-.777a13.559,13.559,0,0,1,1.536-.7c.524-.2,1.039-.436,1.58-.6s1.074-.358,1.632-.489,1.091-.279,1.7-.384l-.471,1.371c-.2-.166-.384-.34-.576-.515a3.492,3.492,0,0,0-.611-.454,3.946,3.946,0,0,0-.663-.4l-.7-.349-.742-.279a7.761,7.761,0,0,0-.768-.227,6.11,6.11,0,0,0-.794-.175c-.262-.052-.524-.122-.8-.157l-.812-.1-.873-.061H122.02a32.407,32.407,0,0,0-3.3.166Z" transform="translate(-15.08 -7.629)" fill="#454747"/>
      <path id="Trazado_342" data-name="Trazado 342" d="M167.9,88.848s15.042-2.977,22.9-8.835,10.162,3.37,5.386,6.687c-3.492,2.444-11.6,9.55-23.632,10.476S167.9,88.848,167.9,88.848Z" transform="translate(-21.042 -9.883)" fill="#757f7d"/>
      <path id="Trazado_343" data-name="Trazado 343" d="M121.25,92.38s-11.82,9.769-21.31,12.222-3.8,10,1.746,8.389c4.129-1.187,14.736-2.968,23.038-11.715S121.25,92.38,121.25,92.38Z" transform="translate(-12.048 -11.696)" fill="#757f7d"/>
      <path id="Trazado_344" data-name="Trazado 344" d="M87.549,44.515S94.1,21.564,89.435,18.439,66.309,27.963,63.978,32.013,87.549,44.515,87.549,44.515Z" transform="translate(-8.108 -2.242)" fill="#f1f1f1"/>
      <path id="Trazado_345" data-name="Trazado 345" d="M19.463,44.321s-8.014-22.471-3.6-25.893,23.7,7.988,26.268,11.881S19.463,44.321,19.463,44.321Z" transform="translate(-1.847 -2.223)" fill="#f1f1f1"/>
      <path id="Trazado_346" data-name="Trazado 346" d="M24.1,39.719s-4.5-12.588-2.017-14.5,13.278,4.47,14.675,6.652S24.1,39.719,24.1,39.719Z" transform="translate(-2.71 -3.121)" fill="#ffcdb8"/>
      <path id="Trazado_347" data-name="Trazado 347" d="M72.65,32.758s10.3-8.538,12.955-6.792.3,13.968-1.257,16.089S72.65,32.758,72.65,32.758Z" transform="translate(-9.228 -3.23)" fill="#ffcdb8"/>
      <path id="Trazado_348" data-name="Trazado 348" d="M49.789,27.73s-31.567.559-37.207,35.094,34.771,34.57,52.737,30.363S98.013,70.113,84.813,46.918C73.56,27.171,49.789,27.73,49.789,27.73Z" transform="translate(-1.531 -3.484)" fill="#f1f1f1"/>
      <path id="Trazado_349" data-name="Trazado 349" d="M44.954,75.149s-1.746,5.046,2.994,5.832c5.011.8,5.09-4.836,5.09-4.836s-3.169,3.946-4.365-1.484C48.691,74.66,47.984,78.6,44.954,75.149Z" transform="translate(-5.671 -9.445)" fill="#ffcdb8"/>
      <path id="Trazado_350" data-name="Trazado 350" d="M46.87,69.853s3-.873,4.679.253a4.225,4.225,0,0,1-2.453,2.68S46.879,71.486,46.87,69.853Z" transform="translate(-5.954 -8.794)" fill="#454747"/>
      <path id="Trazado_351" data-name="Trazado 351" d="M44.78,74.539a7.682,7.682,0,0,0,1.659,1.24,1.405,1.405,0,0,0,.873.2H47.4l.07-.052c.1,0,.1-.1.14-.14a2.672,2.672,0,0,0,.21-.393,11.725,11.725,0,0,0,.541-1.955c.122-.681.244-1.371.332-2.043l.707.079a18.428,18.428,0,0,0-.061,2.252,9.785,9.785,0,0,0,.1,1.135,3.842,3.842,0,0,0,.113.55,3.23,3.23,0,0,0,.166.515,1.885,1.885,0,0,0,.244.454c0,.087.1.122.166.183a.421.421,0,0,0,.192.14l.21.1h.5l.3-.052a3.265,3.265,0,0,0,1-.471,5.238,5.238,0,0,0,.873-.777,4.252,4.252,0,0,1-.751.934,3.2,3.2,0,0,1-1.039.681l-.288.079a1.3,1.3,0,0,1-.166,0h-.515l-.332-.044a1.746,1.746,0,0,1-.55-.41,2.374,2.374,0,0,1-.358-.55A4.365,4.365,0,0,1,48.8,75a8.11,8.11,0,0,1-.166-1.213,13.968,13.968,0,0,1,.052-2.418l.707.087a21.093,21.093,0,0,1-.393,2.1A8.468,8.468,0,0,1,48.3,75.6a2.409,2.409,0,0,1-.34.5,1,1,0,0,1-.253.21,1.186,1.186,0,0,1-.157.079h-.166a1.292,1.292,0,0,1-.611-.087,2.243,2.243,0,0,1-.5-.262A6.355,6.355,0,0,1,44.78,74.539Z" transform="translate(-5.688 -9.027)" fill="#454747"/>
      <path id="Trazado_352" data-name="Trazado 352" d="M22.439,63.179A15.845,15.845,0,0,1,25.931,63a3.255,3.255,0,0,1,.873.079c.288.079.585.061.873.113a15.39,15.39,0,0,1,1.746.393c.288.079.567.192.873.279a6.932,6.932,0,0,1,.829.349c.271.14.559.244.821.41l.786.471c.253.183.489.384.733.576a5.29,5.29,0,0,1,.672.655,4.365,4.365,0,0,1,.611.716c.183.253.367.515.541.777l.873,1.371-1.685-.157c-.489-.052-1.039-.07-1.571-.079s-1.065,0-1.606,0-1.074.061-1.615.087a12.612,12.612,0,0,0-1.632.166c-.524.1-1.083.1-1.615.183l-1.624.244c-.55.052-1.083.192-1.624.288s-1.091.2-1.65.279c.5-.244,1-.48,1.519-.7a14.238,14.238,0,0,1,1.563-.629l1.6-.515c.533-.183,1.091-.253,1.641-.393a15.384,15.384,0,0,1,1.659-.306c.559-.07,1.117-.175,1.685-.2s1.126-.087,1.7-.087h1.746l-.786,1.213-.436-.629a3.492,3.492,0,0,0-.48-.594,3.64,3.64,0,0,0-.55-.55l-.594-.506-.655-.454a5.937,5.937,0,0,0-.69-.4,5.124,5.124,0,0,0-.725-.367c-.244-.113-.48-.244-.742-.34l-.768-.3-.786-.253c-.262-.1-.541-.157-.8-.236s-.541-.14-.821-.2a29.89,29.89,0,0,0-3.378-.576Z" transform="translate(-2.736 -7.96)" fill="#454747"/>
      <path id="Trazado_353" data-name="Trazado 353" d="M77.542,65.528a32.44,32.44,0,0,0-3.378.515c-.271.061-.55.113-.821.183s-.541.122-.812.218l-.794.227-.794.279c-.262.087-.5.21-.751.314a6.984,6.984,0,0,0-.733.34,6.005,6.005,0,0,0-.7.393l-.672.428-.611.489a4.592,4.592,0,0,0-.559.533,3.492,3.492,0,0,0-.5.585l-.454.62L65.233,69.4h1.746a15.8,15.8,0,0,1,1.694.131,12.119,12.119,0,0,1,1.676.244,14.987,14.987,0,0,1,1.65.358c.541.148,1.1.244,1.624.445l1.589.55a16.2,16.2,0,0,1,1.545.672c.506.236,1,.489,1.493.751-.55-.1-1.1-.21-1.632-.332A14.31,14.31,0,0,0,75,71.884L73.386,71.6c-.541-.1-1.083-.157-1.615-.236s-1.074-.14-1.615-.183-1.074-.122-1.615-.131-1.074-.079-1.606-.07a15.5,15.5,0,0,0-1.571,0l-1.694.166.943-1.344c.175-.262.367-.506.559-.759a4.365,4.365,0,0,1,.629-.7,5.351,5.351,0,0,1,.7-.637c.244-.183.489-.375.742-.55l.8-.454c.262-.157.559-.253.829-.384a6.242,6.242,0,0,1,.873-.323c.288-.087.567-.192.873-.262a15.4,15.4,0,0,1,1.746-.34c.288,0,.585-.061.873-.087s.585,0,.873-.052a15.365,15.365,0,0,1,3.431.279Z" transform="translate(-8.088 -8.249)" fill="#454747"/>
      <path id="Trazado_354" data-name="Trazado 354" d="M70.55,82.4c-.079,2.392,3.038,4.435,6.984,4.566s7.167-1.746,7.246-4.094S81.741,78.44,77.8,78.309,70.628,79.968,70.55,82.4Z" transform="translate(-8.961 -9.908)" fill="#ffe5dc"/>
      <path id="Trazado_355" data-name="Trazado 355" d="M13.39,78.753c-.079,2.392,3.038,4.435,6.984,4.566s7.158-1.746,7.237-4.1-3.029-4.435-6.984-4.557S13.468,76.361,13.39,78.753Z" transform="translate(-1.701 -9.444)" fill="#ffe5dc"/>
      <ellipse id="Elipse_7" data-name="Elipse 7" cx="7.534" cy="4.592" rx="7.534" ry="4.592" transform="translate(148.451 55.823) rotate(-8.45)" fill="#ffcdb8" opacity="0.4"/>
      <ellipse id="Elipse_8" data-name="Elipse 8" cx="7.534" cy="4.592" rx="7.534" ry="4.592" transform="translate(97.264 62.875) rotate(-4)" fill="#ffcdb8" opacity="0.4"/>
      <path id="Trazado_356" data-name="Trazado 356" d="M125.468,141.153h0c-.3-.768-.594-1.545-.873-2.331l-.079-.21c-.271-.751-.533-1.51-.794-2.261a1.315,1.315,0,0,0-.113-.358c-.253-.751-.5-1.5-.725-2.252a1.442,1.442,0,0,0-.1-.314c-.244-.777-.471-1.554-.681-2.322h0c-.21-.759-.4-1.51-.585-2.261a.506.506,0,0,0-.07-.306c-.175-.707-.323-1.414-.463-2.1l-.079-.384q-.2-1.039-.34-2.017a.743.743,0,0,0-.044-.306c-.1-.681-.175-1.353-.227-2-1.021-12.911,3.876-30.5,3.876-30.5l39.145-.367v.07l.044.07c0,.044.052.087.087.157s.044.07.061.113l.148.253.087.166c.061.113.131.244.21.375a1.748,1.748,0,0,0,.1.175c.218.41.48.873.777,1.475l.131.271.332.655c.061.113.113.236.175.349l.34.69c.061.14.122.262.192.4l.384.8c.052.131.113.253.175.384.192.4.384.821.576,1.266h0c.192.428.384.873.585,1.336l.21.48.41.986.236.576.393.978c.087.2.166.41.244.629s.271.69.41,1.048c.07.2.148.4.227.611.175.48.358.978.533,1.484l.157.428c.175.506.349,1.021.515,1.536l.061.183h0a82.622,82.622,0,0,1,3.352,14.125c4.644,4.993,9.4,12.318,11.157,18.333,0,0-2.8,7.211-5.3,6.879-1.179-.157-9.2-2.828-17.416-5.456a1.362,1.362,0,0,1-.332.166c-1.109-1.309-15.26-1.388-17.661,1.467a4.881,4.881,0,0,0-.393.585c-.07.131-.122.271-.183.41a2.889,2.889,0,0,0-.131.288c-.061.148-.1.314-.157.471l-.1.323c-.044.175-.087.349-.122.533s-.052.218-.079.34-.079.393-.113.594,0,.21-.061.323l-.1.7v.244l-.288,2.1v.3l-.1.663a2.678,2.678,0,0,1-.061.367c-.017.122-.079.384-.122.567l-.079.375a1.806,1.806,0,0,1-.14.515c-.052.166-.061.244-.1.358s-.1.306-.166.463l-.131.323c-.061.14-.14.271-.21.4a2.941,2.941,0,0,1-.166.279,3.645,3.645,0,0,1-.262.349l-.183.218a3.806,3.806,0,0,1-.367.288l-.183.14a2.618,2.618,0,0,1-.663.262c-3.946,1-4.574.812-6.609.052a1.108,1.108,0,0,1-.218-.14.82.82,0,0,0-.087-.087c-.052-.052-.114-.1-.183-.183a1.6,1.6,0,0,0-.113-.14l-.2-.244-.131-.192c-.07-.1-.148-.2-.218-.314l-.157-.227-.244-.393-.157-.253-.279-.48-.157-.271c-.1-.175-.21-.367-.314-.559l-.148-.271-.358-.663c-.044-.087-.087-.175-.14-.262l-.4-.786a1.744,1.744,0,0,0-.113-.218l-.463-.943-.07-.14c-1.117-2.313-2.34-5.055-3.492-8.005h0c-.157-.393-.314-.786-.463-1.187Z" transform="translate(-15.262 -11.503)" fill="#757f7d"/>
      <path id="Trazado_357" data-name="Trazado 357" d="M101.955,134.4s-7.42-9.6-11.619.6c-2.785,6.748,6.609,9.018,7.857,3.605Z" transform="translate(-11.409 -16.513)" fill="#f1f1f1"/>
    </g>
  </g>
</svg>
