<svg xmlns="http://www.w3.org/2000/svg" viewBox="0 0 444.57 465.7"><defs><style>.cls-1{fill:#f4f4f4;}.cls-2{fill:none;stroke:#fff;stroke-miterlimit:10;stroke-width:3px;}.cls-3{fill:#f6f6f6;}</style></defs><title>LogoMichis</title><g id="Capa_2" data-name="Capa 2"><g id="Capa_1-2" data-name="Capa 1"><path class="cls-1" d="M156.09,70.7C141.36,56.05,81.86-.12,35.14,0a6.52,6.52,0,0,0-5.77,3.43c-5,9.44-13.29,42.39,23,139.9a2.6,2.6,0,0,0,4.67.45c8.57-14.32,38.25-56.28,97.74-68.7A2.59,2.59,0,0,0,156.09,70.7Zm-37.27-6.24s24.62,11.71,11,11.16-27.32,4.74-27.32,4.74c8.92-8.37,24.19-7.81,24.19-7.81s-18.89-7.24-13.88-13.1,27.76,9.26,27.76,9.26-21.46-7.11-22.83-6.77C115.19,62.57,118.82,64.46,118.82,64.46Z"/><path class="cls-1" d="M278.78,75.08c59.48,12.42,89.16,54.38,97.73,68.7a2.6,2.6,0,0,0,4.67-.45c36.31-97.51,28-130.46,23-139.9A6.53,6.53,0,0,0,398.43,0C351.7-.12,292.2,56.05,277.48,70.7A2.59,2.59,0,0,0,278.78,75.08Zm37.08-13.14C314.49,61.6,293,68.71,293,68.71s22.73-15.11,27.75-9.26-13.88,13.1-13.88,13.1,15.28-.56,24.19,7.81c0,0-13.65-5.3-27.31-4.74s11-11.16,11-11.16S318.37,62.57,315.86,61.94Z"/><path class="cls-1" d="M180.92,168.79a83,83,0,0,1,14.41,37.07s-9.78,35-55.61,34.5-53.55-35.78-53.55-35.78-7.72-50.72,42.74-65.14c0,0,11.6,5.15,16.85,10.84,0,0-1.09,24.51,2.63,32.61A62.63,62.63,0,0,1,129.56,145s-3.4,39,29.34,84.06C158.9,229.1,159.75,240.4,180.92,168.79Z"/><path class="cls-1" d="M263.58,168.79a83,83,0,0,0-14.41,37.07s9.78,35,55.61,34.5,53.55-35.78,53.55-35.78,7.72-50.72-42.74-65.14c0,0-11.6,5.15-16.85,10.84,0,0,1.09,24.51-2.63,32.61A62.63,62.63,0,0,0,314.94,145s3.4,39-29.34,84.06C285.6,229.1,284.75,240.4,263.58,168.79Z"/><path class="cls-1" d="M235.07,255.6a36.63,36.63,0,0,0-10.28.86,9.67,9.67,0,0,1-5,0,36.63,36.63,0,0,0-10.28-.86c-9.68.3-7.87,6-7.87,6,3.39,10.24,11.36,14.72,16,17.32a9.55,9.55,0,0,0,9.35,0c4.62-2.6,13.36-7.73,16-17.32C242.94,261.65,244.75,255.9,235.07,255.6Z"/><path class="cls-2" d="M188.48,261.49S107.2,240.9.06,245.12"/><path class="cls-2" d="M188.48,272.57s-63.34-10.08-146.2,7.62"/><path class="cls-2" d="M174.76,287.87S133.59,293.15,47,323.76"/><path class="cls-2" d="M256.09,261.49s81.28-20.59,188.42-16.37"/><path class="cls-2" d="M256.09,272.57s63.34-10.08,146.2,7.62"/><path class="cls-2" d="M269.81,287.87s41.17,5.28,127.73,35.89"/><path class="cls-3" d="M175.64,461.83a15.43,15.43,0,0,1-9,3.83,13.65,13.65,0,0,1-9-2.4,18.72,18.72,0,0,1-6.45-8.48q-2.4-5.7-1.35-14.4.9-7.65,2.7-16.2t3.75-16.42q2-7.87,3.82-14.1t3.08-9.23q-.75,1.2-2.78,4.8t-4.57,8.33q-2.55,4.72-5.48,10.2T145,418.33c-1.65,3.4-3.07,6.51-4.27,9.3a36,36,0,0,0-2.25,6.45c-.2.7-1,1.15-2.48,1.35a13.36,13.36,0,0,1-4.8-.3,12.35,12.35,0,0,1-4.72-2.17,5.76,5.76,0,0,1-2.25-4.58,27.73,27.73,0,0,1,.37-5.62q.52-3.67,1.43-8.33c.6-3.09,1.3-6.32,2.1-9.67s1.57-6.55,2.32-9.6,1.43-5.8,2-8.25,1.1-4.28,1.5-5.48q-5.55,8.86-10.5,18.38t-9.15,19q-4.2,9.45-7.65,18.15t-5.85,15.9q-.6,1.8-3.6,1.8a14.38,14.38,0,0,1-6.08-1.42,13.84,13.84,0,0,1-5.1-4,5.7,5.7,0,0,1-.67-6q3.45-8.25,6.07-15t5.7-15.3q3.08-8.55,6-17.47t5.1-17.48a136.84,136.84,0,0,0,3.08-15.22,30.18,30.18,0,0,0-.08-10.73q-1-4-4.42-4-3.6.15-7.8,3.6a47.84,47.84,0,0,0-8.25,9.08,106.94,106.94,0,0,0-13.88,27,78.15,78.15,0,0,0-3.45,14.1,31.43,31.43,0,0,0,.23,11.77,7.09,7.09,0,0,0,4.57,5.18q3.53,1.28,7.58-1.28a6.54,6.54,0,0,1-3.23,3.83,14.66,14.66,0,0,1-6,1.95,20.76,20.76,0,0,1-7-.45,13.08,13.08,0,0,1-6.3-3.45,15.67,15.67,0,0,1-4-7.13q-1.28-4.5.08-11.4a105.57,105.57,0,0,1,6.52-20.7A96.42,96.42,0,0,1,77,360.43a66.17,66.17,0,0,1,14.55-14.62A28.47,28.47,0,0,1,108.44,340q6.45,0,10,3.38a16.78,16.78,0,0,1,4.73,8.55,39.76,39.76,0,0,1,.75,11.7,97.43,97.43,0,0,1-1.8,13q-1.35,6.53-3.15,12.37t-3.15,9.75q2.4-4.8,6.37-12t8.18-14.47q4.2-7.28,8-13.43a105.84,105.84,0,0,1,6.08-9c.8-1,2.07-1.3,3.82-.9a14,14,0,0,1,5.1,2.4,16.06,16.06,0,0,1,4,4.05q1.5,2.25.6,3.75a91.1,91.1,0,0,0-6.38,13.88q-2.77,7.58-4.8,14.55t-3.22,12.45q-1.2,5.47-1.8,7.72.9-1.8,3.6-6.75t6.37-11.62q3.67-6.68,8-14.18t8.55-14.17q4.2-6.67,7.8-11.93a47.35,47.35,0,0,1,5.85-7.35c.7-.7,1.82-.82,3.37-.37a17.88,17.88,0,0,1,4.58,2.1,13.84,13.84,0,0,1,3.67,3.3c.95,1.25,1.13,2.37.53,3.37q-2.25,3.91-5.4,10.88t-6.6,15.82q-3.45,8.86-6.83,18.83t-5.92,19.65q-2.55,9.68-4,18.45a67.79,67.79,0,0,0-1,15.3q.45,6.52,3.07,10T175.64,461.83Z"/><path class="cls-3" d="M211.49,402.43a2.39,2.39,0,0,1,1.8-1.12,3.32,3.32,0,0,1,1.87.37,3.9,3.9,0,0,1,1.35,1.2,1.28,1.28,0,0,1,.08,1.5q-1.65,3.45-4.8,9c-2.1,3.7-4.4,7.41-6.9,11.1a98.23,98.23,0,0,1-7.73,10q-4,4.5-7.12,5.85a9.25,9.25,0,0,1-4.5.45,14.41,14.41,0,0,1-4.8-1.42,11.07,11.07,0,0,1-3.75-3,6,6,0,0,1-1.35-4.28,50.2,50.2,0,0,1,1.27-8,109.39,109.39,0,0,1,3-10.65q1.88-5.62,4.13-11.1a66.08,66.08,0,0,1,4.65-9.38c.5-.8,1.52-1.2,3.07-1.2a12.25,12.25,0,0,1,4.58.9,11.15,11.15,0,0,1,3.75,2.4,2.63,2.63,0,0,1,.75,3.15q-7.05,13.5-9.6,21.08c-1.71,5.05-2.25,8.32-1.65,9.82.4,1.1,1.25,1.23,2.55.38a24.37,24.37,0,0,0,4.87-4.88q2.93-3.6,6.68-9.3T211.49,402.43ZM202,386.68a3.49,3.49,0,0,1-2.63,1.35,9.05,9.05,0,0,1-3.45-.37,8.61,8.61,0,0,1-3-1.58,2.5,2.5,0,0,1-1.12-2.25,32.2,32.2,0,0,1,1-4.42c.45-1.55.93-3,1.43-4.35s1-2.58,1.5-3.68.9-1.95,1.2-2.55a3.83,3.83,0,0,1,3.3-1.42,11.91,11.91,0,0,1,4.72.82,10.89,10.89,0,0,1,3.83,2.4,2.28,2.28,0,0,1,.6,3c-.3.6-.78,1.48-1.43,2.63l-2,3.6c-.7,1.25-1.41,2.47-2.1,3.67S202.54,385.78,202,386.68Z"/><path class="cls-3" d="M255.59,399.13c.3-.4.77-.47,1.42-.22a9.31,9.31,0,0,1,1.95,1,5.9,5.9,0,0,1,1.58,1.57c.39.6.5,1.05.3,1.35l-6.08,10.28q-3.67,6.22-8.17,12.45a85.23,85.23,0,0,1-9.68,11.25,24.92,24.92,0,0,1-10.72,6.52,13.74,13.74,0,0,1-6.53-.07,32,32,0,0,1-7.35-2.55,24.74,24.74,0,0,1-6.15-4.2,7.69,7.69,0,0,1-2.77-5,30,30,0,0,1,.52-9,66.82,66.82,0,0,1,2.93-10.42,88.42,88.42,0,0,1,4.65-10.5,68.12,68.12,0,0,1,5.85-9.38,42.67,42.67,0,0,1,6.52-7.05,16.42,16.42,0,0,1,6.53-3.6,5.64,5.64,0,0,1,3.45.45l4.35,2.25c.5-.8,1.25-1.87,2.25-3.22a7.88,7.88,0,0,1,1.95-2.18,4.83,4.83,0,0,1,4.2.15,15.49,15.49,0,0,1,4.27,2.78,13.27,13.27,0,0,1,2.85,3.6c.65,1.25.63,2.17-.07,2.77a47.52,47.52,0,0,0-5.33,6,49,49,0,0,0-4.2,6.6,30.47,30.47,0,0,0-2.47,6.08,8.63,8.63,0,0,0-.3,4.42A2.35,2.35,0,0,1,239,412a8.44,8.44,0,0,1-3.52-1.2,11,11,0,0,1-3.15-2.77,6.51,6.51,0,0,1-1.35-4.13,15.67,15.67,0,0,1,.37-3.15,27.23,27.23,0,0,1,1-3.67,38.79,38.79,0,0,1,1.5-3.6c.55-1.15,1-2.13,1.43-2.93-1.41.6-3,2.15-4.65,4.65a61.77,61.77,0,0,0-4.88,8.78,79.79,79.79,0,0,0-4,10.5,53.47,53.47,0,0,0-2.1,9.9c-.3,2.95-.06,5.25.75,6.9s2.4,2.17,4.8,1.57a17.3,17.3,0,0,0,7.42-4.2,68.24,68.24,0,0,0,7.43-7.95q3.74-4.65,7.57-10.27T255.59,399.13Z"/><path class="cls-3" d="M311.39,400.63a1.64,1.64,0,0,1,1.65-1.05,4.09,4.09,0,0,1,2.25.68,6.17,6.17,0,0,1,1.8,1.8,2.18,2.18,0,0,1,.3,2.17,87.32,87.32,0,0,1-5.85,11.4,123.64,123.64,0,0,1-7.2,10.65,82.84,82.84,0,0,1-7.35,8.55,28.37,28.37,0,0,1-6.45,5.1,8.19,8.19,0,0,1-4.65.83,20.94,20.94,0,0,1-5.25-1.13,16.11,16.11,0,0,1-4.5-2.4,6.36,6.36,0,0,1-2.4-3,16.33,16.33,0,0,1,.15-6.6,68.46,68.46,0,0,1,2-8.1q1.27-4,2.48-7.35t1.5-4.35a53.53,53.53,0,0,0-7,7.65q-4,5.1-7.87,10.95t-7.28,11.4q-3.37,5.55-5,9a3.09,3.09,0,0,1-2.93,1.58,12.15,12.15,0,0,1-4.5-.75,14.25,14.25,0,0,1-4.05-2.18c-1.15-.9-1.57-1.85-1.27-2.85q1.2-4.5,3.9-12.07t6.3-16.58q3.6-9,7.87-18.67t8.7-18.3q4.42-8.62,8.7-15.45a49.9,49.9,0,0,1,7.88-10.13,5.42,5.42,0,0,1,4.8-1.57,13.66,13.66,0,0,1,5.25,1.8,9.74,9.74,0,0,1,3.6,3.52q1.2,2.11.15,3.6-2,.9-6.23,6.15a145.67,145.67,0,0,0-9.45,13.35q-5.18,8.1-10.42,18.3a158,158,0,0,0-9,21.15c1.59-2.3,3.35-4.72,5.25-7.27s3.82-5,5.77-7.43a85.1,85.1,0,0,1,5.85-6.52,31.49,31.49,0,0,1,5.63-4.58,6.65,6.65,0,0,1,4.57-.82,13,13,0,0,1,4.88,1.72,10.14,10.14,0,0,1,3.45,3.3,3.91,3.91,0,0,1,.3,3.9c-.9,2-2,4.4-3.38,7.2s-2.65,5.73-3.9,8.78-2.35,6-3.3,8.85a24,24,0,0,0-1.42,7.42,31.66,31.66,0,0,0,6.9-5,62.58,62.58,0,0,0,6.75-7.5,99.43,99.43,0,0,0,6.3-9.23Q308.69,405.58,311.39,400.63Z"/><path class="cls-3" d="M336.74,402.43a2.39,2.39,0,0,1,1.8-1.12,3.34,3.34,0,0,1,1.87.37,3.9,3.9,0,0,1,1.35,1.2,1.28,1.28,0,0,1,.08,1.5c-1.11,2.3-2.7,5.3-4.8,9s-4.41,7.41-6.9,11.1a98.23,98.23,0,0,1-7.73,10q-4,4.5-7.12,5.85a9.25,9.25,0,0,1-4.5.45,14.41,14.41,0,0,1-4.8-1.42,11.07,11.07,0,0,1-3.75-3,6,6,0,0,1-1.35-4.28,50.2,50.2,0,0,1,1.27-8,109.39,109.39,0,0,1,3-10.65q1.88-5.62,4.13-11.1a66.08,66.08,0,0,1,4.65-9.38c.5-.8,1.52-1.2,3.07-1.2a12.25,12.25,0,0,1,4.58.9,11.15,11.15,0,0,1,3.75,2.4,2.63,2.63,0,0,1,.75,3.15q-7.06,13.5-9.6,21.08c-1.71,5.05-2.25,8.32-1.65,9.82.39,1.1,1.25,1.23,2.55.38a24.63,24.63,0,0,0,4.87-4.88q2.92-3.6,6.68-9.3T336.74,402.43Zm-9.45-15.75a3.49,3.49,0,0,1-2.63,1.35,9.05,9.05,0,0,1-3.45-.37,8.61,8.61,0,0,1-3-1.58,2.5,2.5,0,0,1-1.12-2.25,32.2,32.2,0,0,1,1-4.42c.45-1.55.92-3,1.43-4.35s1-2.58,1.5-3.68.9-1.95,1.2-2.55a3.83,3.83,0,0,1,3.3-1.42,11.91,11.91,0,0,1,4.72.82,10.89,10.89,0,0,1,3.83,2.4,2.28,2.28,0,0,1,.6,3c-.3.6-.78,1.48-1.43,2.63s-1.33,2.35-2,3.6-1.41,2.47-2.1,3.67S327.79,385.78,327.29,386.68Z"/><path class="cls-3" d="M382.19,400.48a8.25,8.25,0,0,1,4.8,1,19.64,19.64,0,0,1,3.9,2.4,3.33,3.33,0,0,1-.83.68.92.92,0,0,1-.52,0l-.83-.23a3.7,3.7,0,0,0-1.42,0,25.3,25.3,0,0,0-6.6,2.93q-4.37,2.47-9,5.55t-8.63,6a37.85,37.85,0,0,0-5.17,4.27q.74,1.2,1.5,2.25t1.5,2.25a14.29,14.29,0,0,1,1.95,8.1,18.75,18.75,0,0,1-2.48,7.88,29.18,29.18,0,0,1-5.77,7.12,40.22,40.22,0,0,1-7.65,5.55,20.88,20.88,0,0,1-6.08,2.18,24.75,24.75,0,0,1-6.6.45,21,21,0,0,1-6-1.28,9.69,9.69,0,0,1-4.35-3.07,8.08,8.08,0,0,1-1.65-4.88,12.66,12.66,0,0,1,2.18-6.6,47.66,47.66,0,0,1,8.92-10.65q5.47-4.95,11.18-9.3-2.7-3.9-5.48-7.42a20.15,20.15,0,0,1-3.82-7.88,21.93,21.93,0,0,1-.38-7.87,26.09,26.09,0,0,1,2.18-7.58,28.22,28.22,0,0,1,4.27-6.67,30,30,0,0,1,5.93-5.33,6.68,6.68,0,0,1,3.9-1,15.83,15.83,0,0,1,4.5.82,24.61,24.61,0,0,1,4.12,1.8c1.25.7,2.22,1.3,2.93,1.8a59.53,59.53,0,0,1,6.82-9.37c1.95-2,3.53-3.62,4.73-4.73.69-.5,1.65-.37,2.85.38a14.41,14.41,0,0,1,3.37,3,15.14,15.14,0,0,1,2.4,3.82c.55,1.3.47,2.2-.22,2.7a35.5,35.5,0,0,0-5.7,5.25,73.51,73.51,0,0,0-6.15,7.65,40.33,40.33,0,0,0-4.43,7.88c-1.05,2.55-1.23,4.63-.52,6.22a2.9,2.9,0,0,1-2-.15,10.5,10.5,0,0,1-2.55-1.35,10,10,0,0,1-2.32-2.32,9,9,0,0,1-1.5-3.08,6.14,6.14,0,0,1,0-2.77,28.24,28.24,0,0,1,.75-3.08,24,24,0,0,1,1.05-2.85q.58-1.35.9-2.1c-1.91-.09-3.68.93-5.33,3.08a21.52,21.52,0,0,0-3.67,7.72,28.67,28.67,0,0,0-.9,9.38,13.23,13.23,0,0,0,3.15,8.17c1.89-1.2,4.12-2.7,6.67-4.5s5.12-3.57,7.73-5.32a73.29,73.29,0,0,1,7.72-4.58A23.49,23.49,0,0,1,382.19,400.48Zm-48.45,49a10.27,10.27,0,0,0,5-2.32,30.61,30.61,0,0,0,5.4-5.18,27.52,27.52,0,0,0,3.9-6.15q1.43-3.15.53-5.1-4.66,4.35-8.78,8.78A28.13,28.13,0,0,0,333.74,449.53Z"/></g></g></svg>