<svg xmlns="http://www.w3.org/2000/svg" viewBox="0 0 120.92 172.14"><defs><style>.cls-1,.cls-4{fill:#454747;}.cls-1{opacity:0.2;}.cls-2{fill:#757f7d;}.cls-3,.cls-5{fill:#ffcdb8;}.cls-5{opacity:0.4;}</style></defs><title>Recurso 1</title><g id="Capa_2" data-name="Capa 2"><g id="objects"><path class="cls-1" d="M99.18,166.25c0,3.25-15.54,5.89-34.71,5.89s-34.71-2.64-34.71-5.89,15.54-5.89,34.71-5.89S99.18,163,99.18,166.25Z"/><path class="cls-2" d="M113.35,42.66S124.73,16,119.58,11.53s-29.3,8-32.69,12.51S113.35,42.66,113.35,42.66Z"/><path class="cls-2" d="M37.75,32S33.94,3.25,40.09.31s26.1,15.54,28.15,20.82S37.75,32,37.75,32Z"/><path class="cls-3" d="M43.63,26.41S41.5,10.32,45,8.68s14.61,8.7,15.76,11.65S43.63,26.41,43.63,26.41Z"/><path class="cls-3" d="M96,24.88s13.7-8.69,16.64-6.25-1.76,16.91-4,19.19S96,24.88,96,24.88Z"/><path class="cls-2" d="M74.69,15s-38.12-4.1-50.14,36.65S61.2,98.53,83.48,96.18,126.36,73.34,114,43.41C103.42,17.9,74.69,15,74.69,15Z"/><path class="cls-4" d="M35.4,58.57c.05,3.49,2.32,6.28,5.07,6.24s5-2.89,4.9-6.37-2.32-6.27-5.07-6.23S35.36,55.09,35.4,58.57Z"/><path class="cls-4" d="M85.24,66.49c.05,3.48,2.32,6.27,5.07,6.24s5-2.89,4.9-6.37-2.32-6.28-5.07-6.24S85.2,63,85.24,66.49Z"/><path class="cls-3" d="M60.4,66.83s-1.24,5,1,5.61,4.08-4.09,4.08-4.09a3.51,3.51,0,0,1-2.31-3.7S61.86,67.45,60.4,66.83Z"/><path class="cls-4" d="M61.23,59.36s3.74-.63,5.61.93c0,0-1,2.49-3.32,2.91C63.52,63.2,61,61.33,61.23,59.36Z"/><path class="cls-4" d="M58.44,64.46a8.94,8.94,0,0,0,1.83,1.71,1.71,1.71,0,0,0,1,.36l.11,0s.07,0,.09-.06.14-.11.18-.15a2.79,2.79,0,0,0,.31-.44,12.45,12.45,0,0,0,.92-2.29c.25-.8.49-1.61.68-2.42l.84.2A23.07,23.07,0,0,0,64,64.12a12.71,12.71,0,0,0,0,1.38c0,.23,0,.46.06.68a4.27,4.27,0,0,0,.14.64,2.36,2.36,0,0,0,.24.59c0,.1.11.15.17.23s.12.17.21.2l.25.15.29.07.15,0h.15l.36,0a4,4,0,0,0,1.26-.44,7.06,7.06,0,0,0,1.17-.82,4.79,4.79,0,0,1-1,1,3.92,3.92,0,0,1-1.35.69l-.35,0-.21,0-.2,0-.42,0-.39-.19a1,1,0,0,1-.33-.26,1.39,1.39,0,0,1-.27-.32,2.64,2.64,0,0,1-.36-.71,3.51,3.51,0,0,1-.21-.75c-.06-.25-.07-.49-.11-.74a12.39,12.39,0,0,1,0-1.49,19.16,19.16,0,0,1,.38-2.91l.85.19a25.4,25.4,0,0,1-.75,2.48,11,11,0,0,1-1.13,2.38,2.66,2.66,0,0,1-.48.56.9.9,0,0,1-.33.21.94.94,0,0,1-.2.08h-.21a1.61,1.61,0,0,1-.73-.18A2.8,2.8,0,0,1,60,66.5,7.76,7.76,0,0,1,58.44,64.46Z"/><path class="cls-2" d="M45.9,87.59s-19.26,49.73,2.1,77c0,0,6,1.41,7-1.4s1.4-13.3,1.4-13.3,11.56-3.16,14.36,0,2.51,13.51,6.64,14.54c3,.76,5.48.76,6.36.12,1.79-1.3,10.47-29.37,10.12-45.13S86.52,83,86.52,83Z"/><path class="cls-2" d="M49.48,89.05S33.9,97.18,22.7,97.63s-6.64,10.3,0,9.83c4.9-.35,17.21.18,28.59-7.65S49.48,89.05,49.48,89.05Z"/><path class="cls-2" d="M86.21,101.25s14,10.61,19.19,20.54,12.15,1.61,8.89-4.19C111.88,113.31,107.1,102,95.15,95S86.21,101.25,86.21,101.25Z"/><path class="cls-2" d="M26.18,97.21c.16,2.21-.65,4.08-1.81,4.16S22.15,99.72,22,97.5s.65-4.08,1.81-4.16S26,95,26.18,97.21Z"/><path class="cls-2" d="M9.62,119.94l.06.65c0,.22.05.48.08.79,0,.15,0,.32.05.49l0,.27,0,.17a13.23,13.23,0,0,0,.46,1.91,7.5,7.5,0,0,0,.46,1.27,9.34,9.34,0,0,0,.65,1.36,10.14,10.14,0,0,0,.87,1.41l.5.71.6.68a14.56,14.56,0,0,0,2.9,2.52A14.92,14.92,0,0,0,20,133.85a12.7,12.7,0,0,0,4.12.36l1-.18.26,0,.13,0h0c-.28.1-.06,0-.12,0h0l.08,0,.64-.21.3-.12c.11,0,.28-.13.42-.19a9.18,9.18,0,0,0,.88-.52,23.84,23.84,0,0,0,3.55-3.06c2.33-2.32,4.59-4.9,7.4-6.6a10.62,10.62,0,0,1,4.46-1.49,9,9,0,0,1,3.63.49,8.72,8.72,0,0,1,1.19.5,6.42,6.42,0,0,1,.81.43l.65.38a1.83,1.83,0,0,1-1.68,3.25l-.18-.08-.51-.23a3.55,3.55,0,0,0-.6-.24,4.76,4.76,0,0,0-.8-.24,4.71,4.71,0,0,0-2-.07,6.2,6.2,0,0,0-2.43,1.16,18.12,18.12,0,0,0-2.74,2.7c-.95,1.11-1.93,2.39-3,3.76a29.41,29.41,0,0,1-4,4.21,14.09,14.09,0,0,1-1.34,1c-.25.16-.46.31-.76.47l-.92.47-.64.27-.07,0h0l-.17.06,0,0-.2.06-.4.12c-.54.15-1.08.33-1.63.45a19.38,19.38,0,0,1-6.66.16,22,22,0,0,1-6.08-2,22.42,22.42,0,0,1-4.9-3.39c-.35-.32-.7-.63-1-1l-.91-1a18.66,18.66,0,0,1-1.6-2.05,18.33,18.33,0,0,1-1.27-2,15.23,15.23,0,0,1-1-2,22.25,22.25,0,0,1-1.23-3.56l-.11-.38-.06-.28c0-.17-.06-.34-.09-.49-.07-.3-.12-.56-.16-.77-.09-.41-.13-.64-.13-.64a4.82,4.82,0,0,1,9.44-1.93A4.53,4.53,0,0,1,9.62,119.94Z"/><path class="cls-5" d="M43,72.34c-.26,2.9-4.32,4.9-9.06,4.48s-8.38-3.11-8.13-6,4.31-4.9,9.06-4.48S43.23,69.45,43,72.34Z"/><path class="cls-5" d="M103.14,81.18c-.25,2.89-4.31,4.9-9,4.47s-8.39-3.1-8.13-6,4.31-4.89,9.06-4.47S103.4,78.28,103.14,81.18Z"/></g></g></svg>