<svg xmlns="http://www.w3.org/2000/svg" viewBox="0 0 107.12 152.84"><defs><style>.cls-1,.cls-4{fill:#454747;}.cls-1{opacity:0.2;}.cls-2{fill:#f1f1f1;}.cls-3{fill:#ffcdb8;}.cls-5{fill:#ffe5dc;}</style></defs><title>Recurso 3</title><g id="Capa_2" data-name="Capa 2"><g id="objects"><path class="cls-1" d="M95,147c0,3.25-15.54,5.89-34.71,5.89S25.58,150.2,25.58,147s15.54-5.89,34.71-5.89S95,143.7,95,147Z"/><path class="cls-2" d="M8.88,112.15a13.92,13.92,0,0,0,3.91,9.29,11.8,11.8,0,0,0,9.36,3.72l1.26-.21.52-.13c.17-.07.34-.12.52-.21a10.78,10.78,0,0,0,2.23-1.43c1.53-1.24,3-2.86,4.68-4.48a30.87,30.87,0,0,1,2.72-2.41,12.46,12.46,0,0,1,3.5-2,8.1,8.1,0,0,1,4.31-.34,10.64,10.64,0,0,1,3.7,1.57,1.69,1.69,0,0,1-1.69,2.93l0,0a7,7,0,0,0-2.52-.8,4.33,4.33,0,0,0-2.26.44,14.16,14.16,0,0,0-4.23,3.83c-1.37,1.64-2.72,3.48-4.5,5.26a15.66,15.66,0,0,1-3.16,2.51c-.31.19-.65.35-1,.52s-.72.31-1.06.42c-.66.19-1.33.4-2,.56a17.27,17.27,0,0,1-8.18-.37A20.18,20.18,0,0,1,7.8,127,22,22,0,0,1,.05,112.92v-.06a4.44,4.44,0,0,1,8.81-1.17A3.55,3.55,0,0,1,8.88,112.15Z"/><path class="cls-2" d="M80.4,84.64S98.81,125,78.65,147.05c0,0-7.49,1.31-8.48-1S70,136.49,68,134.93c-.95-1.41-8.4-2.44-11,.11s-2,11.44-6,12-4.56.32-6.47-.64-9.7-23.26-9.37-36S42.07,81,42.07,81Z"/><path class="cls-2" d="M45.38,88.09s-15.13,6.76-22,14.79-11.51-1.12-7.27-5.76C19.22,93.7,26,84.28,38.49,80.45S45.38,88.09,45.38,88.09Z"/><path class="cls-2" d="M76.28,90.79s13.67,9.37,19,18.5,11.52,1,8.19-4.35C101,101,96,90.52,84.43,84.51S76.28,90.79,76.28,90.79Z"/><path class="cls-2" d="M24.93,30.43S17.92,4,23.32.52s26.29,11.41,28.84,16.1S24.93,30.43,24.93,30.43Z"/><path class="cls-2" d="M97,30.68S104.41,4.36,99.06.79,72.6,11.78,70,16.43,97,30.68,97,30.68Z"/><path class="cls-3" d="M92.23,24.68S96.39,10,93.4,8,78.58,14.1,77.11,16.7,92.23,24.68,92.23,24.68Z"/><path class="cls-3" d="M43.55,16.18s-11.62-10-14.69-8.09-.65,16,1.1,18.46S43.55,16.18,43.55,16.18Z"/><path class="cls-2" d="M64.78,9.8s36.14,1.32,41.85,41-40.56,38.84-61,33.64S8.64,57.32,24.25,31.05C37.55,8.66,64.78,9.8,64.78,9.8Z"/><path class="cls-4" d="M37.75,57.51l-.06-.26a6.84,6.84,0,0,1-.11-.71,6,6,0,0,1,0-1.15,6.58,6.58,0,0,1,.21-1.49,7.49,7.49,0,0,1,1.86-3.43,6,6,0,0,1,1.91-1.37A6.08,6.08,0,0,1,44,48.56a6.19,6.19,0,0,1,2.43.56,6,6,0,0,1,1.9,1.38,7.1,7.1,0,0,1,1.21,1.72,6.77,6.77,0,0,1,.62,1.72,6.58,6.58,0,0,1,.21,1.5,7.91,7.91,0,0,1,0,1.14,4.79,4.79,0,0,1-.13.72l-.05.25-.28-.93a10.59,10.59,0,0,0-.36-1,5.92,5.92,0,0,0-.26-.59c-.1-.2-.19-.42-.32-.63a10.3,10.3,0,0,0-.84-1.27A7,7,0,0,0,46.91,52a4.81,4.81,0,0,0-1.4-.82A4.45,4.45,0,0,0,44,50.85a4.63,4.63,0,0,0-1.56.29A5.25,5.25,0,0,0,41,52a7.36,7.36,0,0,0-1.16,1.14A10.82,10.82,0,0,0,39,54.37c-.12.21-.22.42-.32.62a5.92,5.92,0,0,0-.26.59c-.16.38-.27.71-.37,1Z"/><path class="cls-4" d="M85.66,56.18l-.06-.25c0-.16-.09-.4-.11-.71a6,6,0,0,1,0-1.15,6.58,6.58,0,0,1,.21-1.49,6.86,6.86,0,0,1,.64-1.72,6.66,6.66,0,0,1,1.22-1.71,6,6,0,0,1,1.91-1.37,5.67,5.67,0,0,1,4.87,0,6,6,0,0,1,1.9,1.38,7.1,7.1,0,0,1,1.21,1.72A6.77,6.77,0,0,1,98,52.62a6.58,6.58,0,0,1,.21,1.5,7.91,7.91,0,0,1,0,1.14,4.79,4.79,0,0,1-.13.72l0,.25-.28-.93a10.59,10.59,0,0,0-.36-1,5.05,5.05,0,0,0-.26-.59,6.23,6.23,0,0,0-.32-.63A9.6,9.6,0,0,0,96,51.81a7,7,0,0,0-1.15-1.15,4.81,4.81,0,0,0-1.4-.82,4.45,4.45,0,0,0-1.55-.31,4.63,4.63,0,0,0-1.56.29,5,5,0,0,0-1.41.82,7.36,7.36,0,0,0-1.16,1.14,10.82,10.82,0,0,0-.85,1.27c-.12.2-.22.42-.32.62a5.78,5.78,0,0,0-.26.58c-.16.38-.27.72-.37,1Z"/><path class="cls-3" d="M71.1,60.16s.49,4.82-1.72,5.09-3.26-4.37-3.26-4.37a3.31,3.31,0,0,0,2.66-3.14S69.66,60.54,71.1,60.16Z"/><path class="cls-4" d="M71.34,53.07S67.93,52,66,53.18a4.79,4.79,0,0,0,2.71,3.16S71.27,54.94,71.34,53.07Z"/><path class="cls-4" d="M73.26,58.21A7.45,7.45,0,0,1,71.5,59.9a2.83,2.83,0,0,1-.58.28,1.4,1.4,0,0,1-.71.07l-.19,0-.17-.1a1,1,0,0,1-.28-.24,2.55,2.55,0,0,1-.37-.58,10.14,10.14,0,0,1-.74-2.37,24.35,24.35,0,0,1-.37-2.42l.82-.07a17.05,17.05,0,0,1,0,2.77,9.37,9.37,0,0,1-.23,1.39,5.35,5.35,0,0,1-.49,1.35,2.86,2.86,0,0,1-.44.61,1.91,1.91,0,0,1-.64.45l-.39.12c-.13,0-.26,0-.39,0H66.1l-.19-.06L65.58,61a3.7,3.7,0,0,1-1.17-.83,4.59,4.59,0,0,1-.82-1.09,6.11,6.11,0,0,0,1,.92,3.67,3.67,0,0,0,1.12.59l.33.06.14,0h.14l.29,0,.25-.11c.09,0,.15-.1.22-.16a.76.76,0,0,0,.2-.2,2.32,2.32,0,0,0,.29-.51,3.77,3.77,0,0,0,.22-.59c.07-.2.09-.42.15-.62.08-.43.12-.86.16-1.3a21,21,0,0,0,0-2.63l.82-.07c.07.78.18,1.57.3,2.35A12.86,12.86,0,0,0,69.76,59a1.89,1.89,0,0,0,.22.45s0,.12.15.18.13.08.08.06l.1,0a1.61,1.61,0,0,0,1-.2A8.68,8.68,0,0,0,73.26,58.21Z"/><ellipse class="cls-5" cx="37.81" cy="65.8" rx="8.14" ry="4.96"/><ellipse class="cls-5" cx="96.36" cy="63.61" rx="8.14" ry="4.96"/></g></g></svg>